<mxfile host="app.diagrams.net" modified="2021-11-02T09:32:10.478Z" agent="5.0 (Windows NT 10.0; Win64; x64) AppleWebKit/537.36 (KHTML, like Gecko) Chrome/94.0.4606.81 Safari/537.36" etag="7enS1FBrAP2z6bBGRBeO" version="15.2.9" type="github">
  <diagram name="Page-1" id="52a04d89-c75d-2922-d76d-85b35f80e030">
    <mxGraphModel dx="2522" dy="762" grid="1" gridSize="10" guides="1" tooltips="1" connect="1" arrows="1" fold="1" page="1" pageScale="1" pageWidth="1100" pageHeight="850" background="none" math="0" shadow="0">
      <root>
        <mxCell id="0" />
        <mxCell id="1" parent="0" />
        <mxCell id="wp-0MRlqjjFjuvnXnYiu-68" value="" style="whiteSpace=wrap;html=1;dashed=1;strokeColor=#00FFFF;fillColor=none;" parent="1" vertex="1">
          <mxGeometry x="-290" y="160" width="170" height="480" as="geometry" />
        </mxCell>
        <mxCell id="wp-0MRlqjjFjuvnXnYiu-26" value="" style="whiteSpace=wrap;html=1;dashed=1;strokeColor=#00FFFF;" parent="1" vertex="1">
          <mxGeometry x="-270" y="340" width="120" height="210" as="geometry" />
        </mxCell>
        <mxCell id="wp-0MRlqjjFjuvnXnYiu-5" value="" style="edgeStyle=orthogonalEdgeStyle;rounded=0;orthogonalLoop=1;jettySize=auto;html=1;" parent="1" source="wp-0MRlqjjFjuvnXnYiu-3" target="wp-0MRlqjjFjuvnXnYiu-4" edge="1">
          <mxGeometry relative="1" as="geometry" />
        </mxCell>
        <mxCell id="wp-0MRlqjjFjuvnXnYiu-3" value="&lt;span style=&quot;font-family: &amp;#34;arial&amp;#34; , &amp;#34;helvetica&amp;#34; ; font-size: 10px ; font-weight: 700&quot;&gt;Message&amp;nbsp;Pair&lt;/span&gt;" style="text;html=1;strokeColor=#6c8ebf;fillColor=#dae8fc;align=center;verticalAlign=middle;whiteSpace=wrap;rounded=0;" parent="1" vertex="1">
          <mxGeometry x="-480" y="260" width="80" height="20" as="geometry" />
        </mxCell>
        <mxCell id="wp-0MRlqjjFjuvnXnYiu-11" value="" style="edgeStyle=orthogonalEdgeStyle;rounded=0;orthogonalLoop=1;jettySize=auto;html=1;" parent="1" source="wp-0MRlqjjFjuvnXnYiu-4" target="wp-0MRlqjjFjuvnXnYiu-9" edge="1">
          <mxGeometry relative="1" as="geometry" />
        </mxCell>
        <mxCell id="wp-0MRlqjjFjuvnXnYiu-4" value="&lt;b&gt;Process&lt;/b&gt;" style="text;html=1;strokeColor=#6c8ebf;fillColor=#dae8fc;align=center;verticalAlign=middle;whiteSpace=wrap;rounded=0;" parent="1" vertex="1">
          <mxGeometry x="-260" y="260" width="70" height="20" as="geometry" />
        </mxCell>
        <mxCell id="wp-0MRlqjjFjuvnXnYiu-14" value="" style="edgeStyle=orthogonalEdgeStyle;rounded=0;orthogonalLoop=1;jettySize=auto;html=1;" parent="1" source="wp-0MRlqjjFjuvnXnYiu-8" target="wp-0MRlqjjFjuvnXnYiu-13" edge="1">
          <mxGeometry relative="1" as="geometry" />
        </mxCell>
        <mxCell id="wp-0MRlqjjFjuvnXnYiu-8" value="&lt;b&gt;Process 2&lt;/b&gt;" style="text;html=1;strokeColor=none;fillColor=none;align=center;verticalAlign=middle;whiteSpace=wrap;rounded=0;" parent="1" vertex="1">
          <mxGeometry x="-260" y="430" width="70" height="20" as="geometry" />
        </mxCell>
        <mxCell id="wp-0MRlqjjFjuvnXnYiu-12" value="" style="edgeStyle=orthogonalEdgeStyle;rounded=0;orthogonalLoop=1;jettySize=auto;html=1;" parent="1" source="wp-0MRlqjjFjuvnXnYiu-9" target="wp-0MRlqjjFjuvnXnYiu-8" edge="1">
          <mxGeometry relative="1" as="geometry" />
        </mxCell>
        <mxCell id="wp-0MRlqjjFjuvnXnYiu-23" style="edgeStyle=none;rounded=0;orthogonalLoop=1;jettySize=auto;html=1;dashed=1;" parent="1" source="wp-0MRlqjjFjuvnXnYiu-9" edge="1">
          <mxGeometry relative="1" as="geometry">
            <mxPoint x="-370" y="359.9999999999999" as="targetPoint" />
          </mxGeometry>
        </mxCell>
        <mxCell id="wp-0MRlqjjFjuvnXnYiu-9" value="&lt;b&gt;Process 1&lt;/b&gt;" style="text;html=1;strokeColor=none;fillColor=none;align=center;verticalAlign=middle;whiteSpace=wrap;rounded=0;" parent="1" vertex="1">
          <mxGeometry x="-260" y="350" width="70" height="20" as="geometry" />
        </mxCell>
        <mxCell id="wp-0MRlqjjFjuvnXnYiu-25" style="edgeStyle=none;rounded=0;orthogonalLoop=1;jettySize=auto;html=1;entryX=0.5;entryY=0;entryDx=0;entryDy=0;" parent="1" source="wp-0MRlqjjFjuvnXnYiu-13" target="wp-0MRlqjjFjuvnXnYiu-24" edge="1">
          <mxGeometry relative="1" as="geometry" />
        </mxCell>
        <mxCell id="wp-0MRlqjjFjuvnXnYiu-13" value="&lt;b&gt;Process 3&lt;/b&gt;" style="text;html=1;strokeColor=none;fillColor=none;align=center;verticalAlign=middle;whiteSpace=wrap;rounded=0;" parent="1" vertex="1">
          <mxGeometry x="-260" y="510" width="70" height="20" as="geometry" />
        </mxCell>
        <mxCell id="wp-0MRlqjjFjuvnXnYiu-19" value="" style="group;strokeColor=default;dashed=1;" parent="1" vertex="1" connectable="0">
          <mxGeometry x="-480" y="305" width="100" height="110" as="geometry" />
        </mxCell>
        <mxCell id="wp-0MRlqjjFjuvnXnYiu-15" value="&lt;b&gt;Process 1.1&lt;/b&gt;" style="text;html=1;strokeColor=none;fillColor=none;align=center;verticalAlign=middle;whiteSpace=wrap;rounded=0;" parent="wp-0MRlqjjFjuvnXnYiu-19" vertex="1">
          <mxGeometry width="73.68421052631578" height="16.923076923076923" as="geometry" />
        </mxCell>
        <mxCell id="wp-0MRlqjjFjuvnXnYiu-16" value="&lt;b&gt;Process 1.2&lt;/b&gt;" style="text;html=1;strokeColor=none;fillColor=none;align=center;verticalAlign=middle;whiteSpace=wrap;rounded=0;" parent="wp-0MRlqjjFjuvnXnYiu-19" vertex="1">
          <mxGeometry y="25.384615384615383" width="73.68421052631578" height="16.923076923076923" as="geometry" />
        </mxCell>
        <mxCell id="wp-0MRlqjjFjuvnXnYiu-17" value="&lt;b&gt;Process 1.3&lt;/b&gt;" style="text;html=1;strokeColor=none;fillColor=none;align=center;verticalAlign=middle;whiteSpace=wrap;rounded=0;" parent="wp-0MRlqjjFjuvnXnYiu-19" vertex="1">
          <mxGeometry y="50.76923076923077" width="73.68421052631578" height="16.923076923076923" as="geometry" />
        </mxCell>
        <mxCell id="wp-0MRlqjjFjuvnXnYiu-18" value="&lt;b&gt;Process ***&lt;/b&gt;" style="text;html=1;strokeColor=none;fillColor=none;align=center;verticalAlign=middle;whiteSpace=wrap;rounded=0;" parent="wp-0MRlqjjFjuvnXnYiu-19" vertex="1">
          <mxGeometry y="76.15384615384615" width="73.68421052631578" height="16.923076923076923" as="geometry" />
        </mxCell>
        <mxCell id="wp-0MRlqjjFjuvnXnYiu-24" value="&lt;b&gt;Process 4&lt;/b&gt;" style="text;html=1;strokeColor=none;fillColor=none;align=center;verticalAlign=middle;whiteSpace=wrap;rounded=0;" parent="1" vertex="1">
          <mxGeometry x="-260" y="590" width="70" height="20" as="geometry" />
        </mxCell>
        <mxCell id="wp-0MRlqjjFjuvnXnYiu-48" value="" style="edgeStyle=none;rounded=0;orthogonalLoop=1;jettySize=auto;html=1;dashed=1;entryX=0;entryY=0.5;entryDx=0;entryDy=0;" parent="1" target="wp-0MRlqjjFjuvnXnYiu-51" edge="1">
          <mxGeometry relative="1" as="geometry">
            <mxPoint x="-140" y="448" as="sourcePoint" />
            <mxPoint x="-110" y="425" as="targetPoint" />
          </mxGeometry>
        </mxCell>
        <mxCell id="wp-0MRlqjjFjuvnXnYiu-28" value="&lt;span style=&quot;color: rgb(199 , 37 , 78) ; font-family: &amp;#34;source code pro&amp;#34; , &amp;#34;dejavu sans mono&amp;#34; , &amp;#34;ubuntu mono&amp;#34; , &amp;#34;anonymous pro&amp;#34; , &amp;#34;droid sans mono&amp;#34; , &amp;#34;menlo&amp;#34; , &amp;#34;monaco&amp;#34; , &amp;#34;consolas&amp;#34; , &amp;#34;inconsolata&amp;#34; , &amp;#34;courier&amp;#34; , monospace , &amp;#34;pingfang sc&amp;#34; , &amp;#34;microsoft yahei&amp;#34; , sans-serif ; font-size: 14px ; background-color: rgb(249 , 242 , 244)&quot;&gt;Transaction&lt;/span&gt;" style="text;html=1;strokeColor=none;fillColor=none;align=center;verticalAlign=middle;whiteSpace=wrap;rounded=0;dashed=1;rotation=90;" parent="1" vertex="1">
          <mxGeometry x="-170" y="435" width="40" height="20" as="geometry" />
        </mxCell>
        <mxCell id="wp-0MRlqjjFjuvnXnYiu-51" value="事务执行器&lt;br&gt;&lt;font color=&quot;#ff0000&quot;&gt;持久化&lt;/font&gt;&lt;br&gt;&lt;font color=&quot;#ff0000&quot;&gt;重试&lt;/font&gt;" style="shape=document;whiteSpace=wrap;html=1;boundedLbl=1;dashed=1;strokeColor=default;fillColor=none;" parent="1" vertex="1">
          <mxGeometry x="-90" y="387.07000000000005" width="80" height="122" as="geometry" />
        </mxCell>
        <mxCell id="wp-0MRlqjjFjuvnXnYiu-62" style="edgeStyle=elbowEdgeStyle;rounded=0;orthogonalLoop=1;jettySize=auto;html=1;entryX=0.5;entryY=0;entryDx=0;entryDy=0;dashed=1;" parent="1" source="wp-0MRlqjjFjuvnXnYiu-53" target="wp-0MRlqjjFjuvnXnYiu-4" edge="1">
          <mxGeometry relative="1" as="geometry">
            <Array as="points">
              <mxPoint x="-225" y="170" />
            </Array>
          </mxGeometry>
        </mxCell>
        <mxCell id="wp-0MRlqjjFjuvnXnYiu-53" value="幂等性" style="whiteSpace=wrap;html=1;dashed=1;strokeColor=default;fillColor=none;" parent="1" vertex="1">
          <mxGeometry x="-20" y="150" width="120" height="40" as="geometry" />
        </mxCell>
        <mxCell id="wp-0MRlqjjFjuvnXnYiu-63" style="edgeStyle=elbowEdgeStyle;rounded=0;orthogonalLoop=1;jettySize=auto;html=1;entryX=1;entryY=0.5;entryDx=0;entryDy=0;dashed=1;" parent="1" source="wp-0MRlqjjFjuvnXnYiu-39" target="wp-0MRlqjjFjuvnXnYiu-4" edge="1">
          <mxGeometry relative="1" as="geometry" />
        </mxCell>
        <mxCell id="wp-0MRlqjjFjuvnXnYiu-67" value="" style="edgeStyle=elbowEdgeStyle;shape=flexArrow;rounded=0;orthogonalLoop=1;jettySize=auto;html=1;dashed=1;strokeColor=#00FFFF;" parent="1" source="wp-0MRlqjjFjuvnXnYiu-65" target="wp-0MRlqjjFjuvnXnYiu-51" edge="1">
          <mxGeometry relative="1" as="geometry" />
        </mxCell>
        <mxCell id="wp-0MRlqjjFjuvnXnYiu-65" value="" style="shape=image;imageAspect=0;aspect=fixed;verticalLabelPosition=bottom;verticalAlign=top;dashed=1;strokeColor=default;fillColor=none;image=data:image/jpeg,/9j/4AAQSkZJRgABAQEAYABgAAD/2wBDAAgGBgcGBQgHBwcJCQgKDBQNDAsLDBkSEw8UHRofHh0aHBwgJC4nICIsIxwcKDcpLDAxNDQ0Hyc5PTgyPC4zNDL/2wBDAQkJCQwLDBgNDRgyIRwhMjIyMjIyMjIyMjIyMjIyMjIyMjIyMjIyMjIyMjIyMjIyMjIyMjIyMjIyMjIyMjIyMjL/wAARCAGhA0gDASIAAhEBAxEB/8QAHwAAAQUBAQEBAQEAAAAAAAAAAAECAwQFBgcICQoL/8QAtRAAAgEDAwIEAwUFBAQAAAF9AQIDAAQRBRIhMUEGE1FhByJxFDKBkaEII0KxwRVS0fAkM2JyggkKFhcYGRolJicoKSo0NTY3ODk6Q0RFRkdISUpTVFVWV1hZWmNkZWZnaGlqc3R1dnd4eXqDhIWGh4iJipKTlJWWl5iZmqKjpKWmp6ipqrKztLW2t7i5usLDxMXGx8jJytLT1NXW19jZ2uHi4+Tl5ufo6erx8vP09fb3+Pn6/8QAHwEAAwEBAQEBAQEBAQAAAAAAAAECAwQFBgcICQoL/8QAtREAAgECBAQDBAcFBAQAAQJ3AAECAxEEBSExBhJBUQdhcRMiMoEIFEKRobHBCSMzUvAVYnLRChYkNOEl8RcYGRomJygpKjU2Nzg5OkNERUZHSElKU1RVVldYWVpjZGVmZ2hpanN0dXZ3eHl6goOEhYaHiImKkpOUlZaXmJmaoqOkpaanqKmqsrO0tba3uLm6wsPExcbHyMnK0tPU1dbX2Nna4uPk5ebn6Onq8vP09fb3+Pn6/9oADAMBAAIRAxEAPwD3+iiigAooooAKKKKACiiigAooooAKKKKACiiigAooooAKKKKACiiigAooooAKKKKACiiigAooooAKKKKACiiigAooooAKKKKACiiigAooooAKKKKACiiigAooooAKKKKACiiigAooooAKKKKACiiigAooooAKKKKACiiigAooooAKKKKACiiigAooooAKKKKACiiigAooooAKKKKACiiigAooooAKKKKACiiigAooooAKKKKACiiigAooooAKKKKACiiigAooooAKKKKACiiigAooooAKKKKACiiigAooooAKKKKACiiigAooooAKKKKACiiigAooooAKKKKACiiigAooooAKKKKACiiigAooooAKKKKACiiigAooooAKKKKACiiigAooooAKKKKACiiigAooooAKKKKACiiigAooooAKbn8qdTG45/WmhMUUVzH9tarf3M6aTbQPDC/lmWZyNzDrjFO8/wAVn/l2sP8AvtqnmRz/AFmL2TfyOlzRmub8/wAV/wDPrp//AH21Hn+K/wDn10//AL7alfyYfWV/K/uOkzRmub8/xX/z66f/AN9tR5/iv/n10/8A77ai/kw+sr+V/cdJmjNc35/iv/n10/8A77ajz/Ff/Prp/wD321F/Jh9ZX8r+46TNGa5vz/Ff/Prp/wD321Hn+K/+fXT/APvtqL+TD6yv5X9x0maM1zfn+K/+fXT/APvtqPP8V/8APrp//fbUX8mH1ldn9x0maM1zfn+K/wDn10//AL7ajz/Ff/Prp/8A321F/Jh9ZX8r+46TNGa5vz/Ff/Prp/8A321Hn+K/+fXT/wDvtqL+TD6yv5X9x0maM1zfn+K/+fXT/wDvtqPP8V/8+un/APfbUX8mH1lfyv7jpM0Zrm/P8V/8+un/APfbUef4r/59dP8A++2ov5MPrK/lf3HScd6PpXN+d4r/AOfXT/8AvtqZ/bOrafcQrqtnAIJnEYlgcnax6ZB7U+ZB9ZiviTS9GdQKWmKcj8KfTOkKKKKACiiigAooooAKKKKACiiigAooooAKKKKACiiigAooooAKKKKACiiigAooooAKKKKACiiigAooooAKKKKACiiigAooooAKKKKACiiigAooooAKKKKACiiigAooooAKKKKACiiigAooooAKKKKACiiigAooooAKKKKACiiigAooooAKKKKACiiigAooooAKKKKACiiigAooooAKKKKAEpr/AHD9KdTX+4fpQKWxzvg7/kH3P/X1J/Ouk71zfg7/AI8Lr/r7l/nXSd6UdjDDfwkLRRRTOgKKKKAEooPSq9zcLbQSzvnZGpY49AM0m7K7E3bVk1GK5iLxtpkiysqzYiTecx44yBx+dCeNtNeWNDFcr5jBVJi4JPSslXp3tzHP9ao3+I6f6UGsXWfEdnosSmYtJI5+WNMbsevPaoE8Z6IygteBTjJUqxx+lN16adnJFPEUlLlcldHR5pKpf2hbHTzfeZ/o4j8wv/s4zmk0/U7bVIPOtJRJHkruAI5H1q1KN7XNOeLaV9y/S0gpaosKKKKACiiigBK5vxn/AMgqD/r5j/nXSVzfjP8A5BUH/XzH/Oplsc+K/gyOjT7g+lL2pE+4PpS9qo3jsLRRRQMKKKKACiiigAooooAKKKKACiiigAooooAKKKKACiiigAooooAKKKKACiiigAooooAKKKKACiiigAooooAKKKKACiiigAooooAKKKKACiiigAooooAKKKKACiiigAooooAKKKKACiiigAooooAKKKKACiiigAooooAKKKKACiiigAooooAKKKKACiiigAooooAKKKKACiiigAooooASmv8AcP0p1Nf7h+lApbHO+Dv+PC6/6+5f510neub8Hf8AHhdf9fcv866TvSjsYYb+EhaKKKZ0BRRRQAlZ+sHbo92c9IH/AJGtCs3XIp59Fu4bdQ0zxFVUnGcjpUVPgZFT4WeWRuzWkw89ZNljtwBjZ84+U/zz71c+2PPeQXc1rNJGtwkaRC6BQOAMYXGferb+HtWMM6/2eEEdmIAUYZlbcpJ4/Gnw+H9b/tRNT+wwblmX9yW46Ab/AOv9K8SNOpdaf1c+aVGqpL3X939bFTWoN97fP9ngjmWTf58l4Cwx2Vfw6H6dqjZLq9SC5uLyzvI1H+pllER79RxW3qehX+s6lLFHpdvaQl8yXWQzSe46GoL/AEK8eN7K08OwqoO1LrzFyVBHP1IrSVCXM5Wdvz/A2nh588pWbX5/gXdT1Rv+Ebtbe4jjtTdyLGQjgqseeTkdsfzqLwfdwW2uX2nQSq9tIfMhKnI9wPwI/KtFfCjT3GmyXNwjw2cKoYNmQzAcnOfXHbtU0/hhBrNpqFlJHbNBw8axDDjPPQjBwTXWqVX2in2/I7FRrc8Z22t9x0q9egp9MXrnvT670esFFFFABRRRQAlc34z/AOQVB/18x/zrpK5vxn/yCoP+vmP+dKWxz4r+DI6NPuD6UvakT7g+lL2pm8dhaKKKBhRRRQAUUUUAFFFFADaKDWRrOuW+jxAv80rfcjU8n/Ae9VCLm+VbmdSrGlFzm7I1icDris2813TrHImuoww/hB3H8hXn2peItQ1IsHmMUJ/5ZxnA/Ejk03TtA1DU8NDFshP/AC0k+Ufh3NehHAKC5q0rHiVM4lUlyYaHN5nVz+ObGPPkwTSn3AArPl8eXB/1Vki/7zk/0qzb+A4QAbq7dz3EagD9c/0rTh8H6PH96BpD6u5NLmwcOjZXJmdXeSj9xzZ8cal2itx+B/xpB441TvFbf98t/jXXL4a0heljF+IzTj4c0kj/AI8YP++aPb4X+T+vvD6lj/8An6ckvjnUAfmt7dh7ZH9TVyHx6MgT2R9zHJn9CBW43hfR2BBskH0JH9aqTeC9LkH7sSxH/Zcn+dHtMHLeLX9eofV8yhqppj7XxhpVxhXleBj/AM9FIH5jitqG6guY98EySr/eVga4q88DToC1rciX/ZkG0/mOK51477SLva3m2047qSM/iOCKpYSjWX7mWvZkvMcVhtMRDTuj16jv0rhNJ8Zyo6xagN6k4EqDkfUd67aCaOeJZInDIwBUg5yK4q1CdF2mj1MLjKWJjemyeiiisTrCiiigAooooAKKKKAEpD0paR/uH6UCexy9/wCMre0unght3mKNtZtwAz7etVf+E6H/AEDz/wB/P/rVyNx/x8zf77fzqOvRjh4WV0fG1s3xPtHyy07WR2X/AAnY/wCgef8Av5/9aj/hOx/0Dz/38/8ArVxtFP6vT7GX9sYv+b8Edl/wnY/6B5/7+f8A1qP+E7H/AEDz/wB/P/rVxtFH1en2D+2MX/N+COy/4Tsf9A8/9/P/AK1H/Cdj/oHn/v5/9auNoo+r0+wf2xi/5vwR2X/Cdj/oHn/v5/8AWo/4Tsf9A8/9/P8A61cbRR9Xp9g/tjF/zfgjsv8AhOx/0Dz/AN/P/rUf8J2P+gef+/n/ANauNoo+r0+wf2xi/wCb8Edl/wAJ2P8AoHn/AL+f/Wo/4Tsf9A8/9/P/AK1cbRR9Xp9g/tjF/wA34I7L/hOx/wBA8/8Afz/61H/Cdj/oHn/v5/8AWrjaKPq9PsH9sYv+b8Edn/wnY/6B5/7+f/WpP+E7HfTz/wB/f/rVxtFH1amH9sYv+b8Eei6P4mt9Vn+zmNopcZAJyD9DW8K8x8Nf8jBaf7x/9BNeoDpXHXgoSsj6TKsVUxNHmqbpi0UUVieoFFFFABRRRQAUUUUAFFFFABRRRQAUUUUAFFFFABRRRQAUUUUAFFFFABRRRQAUUUUAFFFFACU1/uH6U6mv9w/SgUtjnfB3/Hhdf9fcv866TvXN+Dv+Qfdf9fUv866TvSjsYYX+Ehabn2oPSuW8SeJbjRrqKKKBZA6FssSOhx2oclFXZVevCjDnnsdTRXn3/CwL3/nzh/76NJ/wsC9/584P++jUe2h3OH+1sL/N+B6FijFeef8ACwL3/nzh/wC+jR/wsC9/584f++jR7aHcP7Wwvf8AA9CxRivPf+FgXv8Az5w/99Gj/hYF7/z5w/8AfRo9rDuH9rYXv+B6HzRzXnn/AAsC9/584f8Avo0f8LAvf+fOH/vo0e1h3D+1sN3f3HolGK87/wCFgXv/AD5w/wDfRo/4WBe/8+cP/fRo9rDuH9r4bu/uPRMUYrzv/hYF7/z5w/8AfRo/4WBe/wDPnD/30aPaw7h/a+G7v7j0TFGK87/4WBe/8+cP/fRo/wCFgXv/AD5w/wDfRo9rDuH9sYXu/uPQ8Uted/8ACf3v/PnD/wB9Gtzw14jn1qe4jmhSMRqpG0k5zn/CnGpFuyNKWY4erNQg9WdPXOeM/wDkFQf9fMf866MVznjP/kFQf9fMf86ctjoxX8GXodGn3B9KXtSJ9wfSl7VRvHYWiiigYUUUUAFFFFABRRRQA015Z4nd5PEN1ubO0hVz0AwDivUz0ryrxH/yMN5/vj+Qr0cs/iv0PCz5tUF6mZnnPWvU9G1OyvrNPszqNqgGPoU9iK8rpyO8Th43ZGHRlJBFeli8KsQkr2aPCwGPeEm3a6Z7OOlBPvXl1t4o1e2wPtXmKO0ihv161pw+Orxf9daxP/usV/xrypZfWW2p9DTzvDS+K6O/oriR4+UDDaefwlB/pTv+E+j7WD/9/B/hWf1Gv/L+KOj+1cJ/P+DOzpPxriX8enH7uwAP+1L/AICqU3jfUnyI4oI/fBYiqWArvpYzlnGFjtK/yPQiQoycAVw3jPUrS4WO1gKyTxuWZl6L7Z9f8KwLzWtRvwRcXchU/wAKnaPyFUK7cNl7pyU5s8nH5wq0HTpx0fVh9Old94GneTTp43OVjkwntkZrga7rwF/x5Xn/AF1H8q3zFL2F/M5skbWJS8mdjRRRXz59oFFFFABRRRQAUUUUAJTX+4fpTqa/3D9KaJlszyC4/wCPmb/fb+dR1Jcf8fM3++386jr1o7I/Oqvxy9QoooqjIKKKKACiiigAooooAKKKKACiiigAooooAKKKKBmr4b/5GG0/3j/6Ca9Qry/w3/yMNp/vH/0E16hXn4r4kfXZD/Al6i0UUVzHuhRRRQAUUUUAFFFFABRRRQAUUUUAFFFFABSUtNb7poBiZHY8Ubh6iuO0TR01Oza4nursN5rj5ZiBgH0rTHhW3/5/L7H/AF3NW4xWlzjhXqzipRho/M3tw9RRuHqKw/8AhFbb/n8vv+/5o/4RW2/5/L7/AL/mi0e5ftK/8i+83Nw9RRuHqKw/+EVtv+fy+/7/AJo/4RW2/wCfy+/7/mi0e4e0r/yL7zc3D1FG4eorD/4RW2/5/L7/AL/mj/hFbb/n8vv+/wCaLR7h7Sv/ACL7zc3D1FG4eorD/wCEVtv+fy+/7/mj/hFbb/n8vv8Av+aLR7h7Sv8AyL7zc3D1FG4eorD/AOEVtv8An8vv+/5o/wCEVtv+fy+/7/mi0e4vaV/5F95ubl9RTXZdp5FYn/CK23/P5ff9/wA0h8L2wGftl9/3/NHLHuKVSvb4F9//AACLwhj+zrvn/l7l/nUuq+JI9Kvo4JYGkRk3bkPI5Pb8KyPDuiw6hZTyST3CFLh0xFKQOMfnVTXdDnjv4beyjubjKbiztuxz6np0q6UKbdmzz6lfE08KpQjZ/f8AgdVZ+INNvsLFcosh/hf5T+tcn4+P/ExtOc/u25z71JZ+C72YBrqSOFeu0fO3+FZ3ivTU0ue1t45ZJFMZOZGz3HT0rLFQpqOjOXFV8VUwr9rC22t/0OeooorzT58KdGqtKis21SwDN6DPJptFAJ21OlXw3YNp7Xv9soLcHaX8o4z+dYr2Nw0j/ZoZp4d7BJEjYhgD1H5VsQv/AMUHOmVz9oB2556ipzqM9l4KsxazbJGlKsQATtyx/CtnGLPWnRoStpb3bvz8tWc21pcrKsTW8yyNyqFCGP0GOa6G18JSTabDPM3kTPJhifmCp249c44rV0+7t5tCh1qY5uLGJ4iD3bgDP14/OptJuoU0a1c2txG09xh5MndvK8yfQ4x+NXCnHqdGGwNBNObvdXXpoZV/4Qt7exllhvpBJboTLvjOGOMgDpj9arXPhmxs5RHc65FFJjdtaLnB/Gus155E0y7kInwEKKsT53Aj7xGOOv6Vh+JfD+o6jqgubWFXi8pVyXUdM+p96JQS2RrisHSgm6cOZq2mv+ZialocNlpsd9Bfpcxu+wbEwOhPqfSsauo1Wxn0/wAHWtvdALItySQGz1DY5rl+9YzST0PIxtNU5pJW0WgUUUVBxB3rsvh//wAfV7/uJ/M1xveuy+H/APx9Xv8AuJ/M1pS+NHfln+9w+f5HoA6VznjP/kFQf9fMf866MdK5zxn/AMgqD/r5j/nXZLY+vxP8F+h0SfcH0pe1In3B9KXtTN47C0UUUDCiiigAooooAKKKKAEPSvKfEf8AyMN5/vj+Qr1Y9K8p8R/8jDef74/kK9LLP4r9Dwc+/gR9TLooor3D5RhRRRQIKKKKACiiigAooooAK7rwF/x5Xn/XUfyrha7rwF/x5Xn/AF1H8q4sw/gP5Hq5N/vS9GdjRRRXzx9qFFFFABRRRQAUUUUAJTX+4fpTqa/3D9KaJl8LPILj/j5m/wB9v51HUlx/x8zf77fzqOvWjsj86q/HL1CiiiqMgooooAKKKKACiiigAooooAKKKKACiiigAooooGavhv8A5GG0/wB4/wDoJr1CvL/Df/Iw2n+8f/QTXqFefiviR9dkP8CXqFUNRmvIo0NlbrNIWwQz7Qo9f8+tX+1YfiC9vLS3VLK3kkklJG5ELbB64FYRV3Y9evNQg5O/yHaLqsuofaI7iAQz277HCtlfwP4VQ1LXLy31F4LY2zJuVVJJYqcMSCB346Va8NLFHbSIkFzG4YGR7hNrSE9657XLeU+I51jtyUkHmL8pw5VOcY69a2hGLnZnmYitWjhozT1bNLTvEV/c3lukgt/LldkO1HBGATxmoLjxPfx/aWU2QWKUxiNmIc4OM4zzVDT08rWLRGjEcgfO0qFYDYScgVDLbzzaReXy+R5LzkglPn5YDg+laKEL7HEsRiXC13fX8jfstc1Ge8kt1WzncQmRPJc4JyBgkmn2mtatcXstounQh4WUS/vfug+nHPFUtAx/wkzDzLZitsQfs6bQPmHB960tIglj8QatK6OsbspRmXAOM5xWU1FN6HXhqlacYtyera6bGk2q2CybHu4Q6kgrvGQQMmnHULRbdZzcR+WxwrbuGPoPWsbRdMVr3Upri2w5uG2M6YJXnp+ZrLsLSU6wNNfiCwd5VOfXG3+eaSjF9TeWLqxSbjvdL/glibxVcpbsqQqJGmZA03y7fmO3jvgDk+oNT2fia4a0u2mhhd7VCcpJ98jrgY6e9c/eRhbRXe8WVXmk38KXxuPzKOuCecdKs2zCXS9SZnjWRImURiFUcLxycCt/ZwtojzI4vEe0s29vI6CLVdcliSWPSYzG4DA/aByD3q5o2qTailx58KwvDKYyqtnkdazrDxJaQadbxNFclkjUHEJI4AqTwtIs/wDaEyk7XumYZGDzisJR0eh6VGq3Uiozcr7rTTT0OlFNf7h+lO701/uH6Vij05bMwfCX/IJk/wCu7/zroK5/wl/yCJP+u7/zroKup8bMMJ/Bj6C0UUVB0hRRRQAUUUUAFFFFABRRRQAlNf7h+lOpr/cP0oFLY53wd/x4XX/X3L/OukxXN+Dv+Qfdf9fUv866SlHYww38JB2rz3x6rtqFrhWP7tugz3FehdqYyK33gPxpTjzKxOLw31ik6d7HiXlSf882/wC+TR5Un/PNv++TXtvlr/dH5UeWv9wVj9X8zx/7BX8/4f8ABPEvKk/55t/3yaPKk/55t/3ya9t2L/dFL5a/3RR9X8w/sFfz/h/wTxHyn/55t/3yaPKf/nm3/fJr27Yn90UbF/uj8qPq/mP+wv7/AOH/AATyW81S4uLBbGO0WCAEFljU/OcdahTVNViSNY7iZVjG1AF6DpXr+xP7q/lS+Wn91fyqvZPuavKqjd/afh/wTxv7ZqJaRjPckyLtkyzHcPfNMmnvbiTzJpJ3fAGWzwBXs3lr/dH5UuxR/CPypex8xPJ5veq/6+Z4w0t48CwM05hVtyockA1CYpP7j/8AfJr2zy0/uCjav90UvYeZnLI+bWU/w/4J4l5Un/PNv++TR5Un/PNv++TXtuxf7opfLX+6Pyo+r+Yv7BX8/wCH/BPEfKk/55t/3ya7HwArJd3m5SMqvUe5rvPLT+6PypQir90Ypxo8sr3N8LlHsKqqc97eQornPGX/ACC4P+vmP+ddGK53xlxpMJ64uYzj15rZptWR6eK/gy9DoVPyj6U7NYQ12UD/AJBV9/3xTv7el/6BV9/3xWnspFRqxsbWaM1i/wBvS/8AQJvf++KP7el/6BN7/wB8Ueyn/Vh+1j3/AANrNGaxf7el/wCgTe/98Uf29L/0Cb3/AL4o9lP+mg9rHv8AgbWaM1i/29L/ANAm9/74o/t6X/oE3v8A3xR7KX9WD2se/wCBtUZrEbXpcf8AIKvv+/dcnc6ndw6ncSwSywlpCdhPT6jpW1LCzqOy0M6mJjDzPR+3SvKvEf8AyMN5/vj+QrpNO8UXjyCKa2Nx7xL835VzGvv5mu3T7GXLA7WGCOBXbgKM6VVqXY8XOq0amHi49zOooor2D5kKKKKBBRRRQAUUUUAFFFFABXdeAv8AjyvP+uo/lXC13XgL/jyvP+uo/lXFmH8B/I9XJv8Ael6M7Giiivnj7UKKKKACiiigAooooASmv9w/SnU1/uH6U0TL4WeQXH/HzN/vt/Oo6kuP+Pmb/fb+dR160dkfnVX45eoUUUVRkFWYtPuJ7GS7RAYUYKx3Dqf/ANdFhLFDfwyTqrRK43qwyMd/8a7LVLFbHRdQEYxHLMki47ZK5/XNY1arg0kelgsHHERlNu6X37aHG3tjcWEwhuFVXZQ4AOeOafp2l3WpyslugOwZZmOAPb612er2tvFLcaldxrJGtsI0RxkFsn+fFP0iVIba2jMlrGkiD93EDuYkdfb8vxrJ4h8t0tTujlEFW5ZS0/E4ptI1JXKfYrgkEjIjJB/Sq32eUO6eVJuQ4YYOVPpXon2m1ga4t4r0pc563ALBT7dB+tZ2iReQ2qj7aryFkLThRgE57fjQsQ9W0FTKKanGMZb3vs9l8tTk20y7WzS6MTeUzbRxls+47UyCxubqcQxQuZCMhTxkfjXaXL6vHE4S53Ot2sedi4MZAwQMdfm/So43Y+NUhMpkMUBBJAGM844H0pqvKz0RNTK6Skld7pff8zm/+Ec1Y/8ALo3/AH0vH61BdaTe2MQluoDGhO0MSDk/gfau4tmg+x3xSe/IGdxk3bl6/cyP5Vk+ICp8L2xje4dfO4a4zvPDdc1MK0nJJl4jK6FOlKabulc5DrRRRXYfPMKKKKANXw3/AMjDaf7x/wDQTXpw+leV6PM9tq1vKkLzMhJEadT8prs/+EjvMn/iR3n5Vw4mLlJWPqclrwhRkpd+z7HRZo4Nc9/wkd7/ANAS8/Kj/hI73/oCXn5Vz+zkez9cpef3M6HA9KiaGJnVyil1yFYjkZ61h/8ACR3f/QDvPypP+Eju/wDoB3n5UckiXi6L/wCGf+RtfZLcT+f5EfnYx5m0bsfWlFtAIfJESeX/AHdvHr0rE/4SO8/6Ad5+VH/CR3f/AEA7z8qfs5/0w+tUP6T/AMjbitoIWZ44o0ZupVQM1NxXPf8ACR3v/QDvPyo/4SO9/wCgHeflS5JAsXRS0v8Ac/8AI3ZUEsbRkkBgRlTgiqenaRbackgi3u0hy7yNuZvqazh4ivB/zA7z8qP+EjvP+gHeflTUZJWE8RQk1J7ryZsLY2iFGW2iDIMIQg+Ue1PNrC7MTEhLDa2VByPQ1h/8JHd/9AO8/Kl/4SO7/wCgHeflR7Of9MPrWH/pP/I31RFUKFAA4AA6UJHHGWKKq7jk4GM1gf8ACR3v/QDvPypf+Ejvf+gHeflS5JDWKo+f3P8AyOhxTZOFPpiuf/4SO8/6Al5+VIfEV4QR/Yl5zx0o5JIJYyk1a7+5knhI/wDEocf9N5P510HpXPeEGLaMWIwTK5we3NdDRU+Nl4N3oRfkLRRRUHSFFFFABRRRQAUUUUAFFFFACU1/uH6U6mv9w/SgmWxzvg//AJB13/19y/zro+lc54P/AOQdd/8AX3L/ADq3r2v22gWsVxcpIyPII/3YBIyCe/0ohCUmoxV2c9CcYUFKTsjXPTiuX8TeJLjRbuGKGGOQOhYlyR3x2q/pvifSNVwLa9jLn/lmx2t+RrlvH5B1G0x/zyPT6ilWjOmrSVmc+PxPLh3OlLXQP+E/v/8An1g/76NIPH9+P+XSD/vo1yVORGkdURSzMcADqTXH7Wfc+c/tLFvaZ1n/AAn99/z6Qf8AfRo/4WBf/wDPpB/30azZ/DhtLZnuNQgjuVTzPIJ+bH1z7HtWMIZWj8wROUH8W04H1NU5zW7NamMx1PSUn+B1X/Cf3/8Az6Q/99Gl/wCE+v8A/n0g/wC+jXKLDLIBsidgfu7UJz9K0dG0Z9UnmDuYooULSMEJP0A9aFUm3a4qeMxtSSjFu7NkeP74f8ukH/fTUv8Awn99/wA+dv8A99GsW7021jtPPtbszuZjGsflEMRzz+mfxrO8mXj91JyCR8h6DrSdSa6jnjMbB2b+6zOr/wCE/vv+fSD/AL6ak/4T+/8A+fWD/vo1y/kSgqDFJlhxlDkj1rW0rw9LqOmT3WSm3HlkkANg/MT9KanOWzHSxeNqy5Ytml/wn9//AM+sP/fRo/4T++/587f/AL6NJ/whY+zqq6hGbnHmYx8uz19az7fw4ZrMXTahbRQl2RWkyA2CRkZ9cZqm6qNpTzGNld6+honx/fn/AJdIP++jS/8ACf3/APz6wf8AfRqh/wAIyWhmkh1O1n8pC7KhycAe1YHaoc5x3OerjMbSs5yevodb/wAJ/f8A/PpB/wB9Gt3wz4in1qa5SeFIxEqkbSTnOa81712Xw+/4+r3/AHE/maqnUk5JNm+Ax+IqYiMJyunf8jv65zxl/wAguD/r6j/nXR1znjP/AJBUH/XzH/OumWx9Fiv4MvQ6JPuCndqRPuD6UvambR2FooooKCiiigAooooAYRnisU+GrOS7luZi8hkcttJwBn6VuUlVGco/C7ESpxl8RBb2lvapthhSMf7K4rzHxH/yMN5/vj+Qr1XtXlXiP/kYbz/fH8hXoZa26rb7Hh56ksPFLuZdFFFe4fKhRRRQIKKKKACiiigAooooAK7rwF/x5Xn/AF1H8q4Wu68Bf8eV5/11H8q4sw/gP5Hq5N/vS9GdjRRRXzx9qFFFFABRRRQAUUUUAJTX+4fpTqa/3D9KaJl8LPILj/j5m/32/nUdSXH/AB8zf77fzqOvWjsj86q/HL1CiiiqMixZW8NxdJFPOIYz1dug4rr0+wf2Q9jLrsUu5lYOxHygY4Az04riKKyqU+d3ud+Fxn1dNcqbfm9jtNZFhqjgf23HFEqj92CCNwz83X/OKfY6ommWAlvL+GRRHiOGFeSB+ua4iio9hpa50/2rLnc1Fc3zO+s9RmMy3VzqdmLdlLeWAAwz0Gc9s1n2ktjc6fqfmXyQfa7hsMTjA7cH1wa5Gij6ulsw/taUrXj3vdvdnoKX1oL6OV9agKKgUxjA3kZ5Jz71Qs/sMHiG4vRqMc2+N24I4ORwPoBXG0Ulh7dQlmzlZuK0d+p2OleILi7sr0XV5FHJ0hLgLtznt3qLxHcD+w7e2lvI7i4EuWZABxg9h9QK5OjFUqCUk0TPNKk6Lpy1bVrhRRRW55IUUUUDNTw3/wAjDaf7x/8AQTXqGB6V5h4b/wCRhtP94/8AoJr1CuDFfEj67If4EvUMD0owPSiiuU9yyDA9KMD0oooCyDA9KMD0oooCyDA9KMD0oooCyDA9KMD0paKB2EwPSjA9KKKBWQYHpRgelFFAWQYHpTWHB+lPpjfdP0piktDB8Jf8gh/+u0n866Cuf8I/8gh/+u0n866CqqfEzDCfwY+gtZ2szy2mjXlxAcSxwsycZ5A4rQrP1qeW00e8uIP9bHEzLxnkDipjujebtFjBpUbXQuTc3m7O7Z9ocJ/3znGKVtJja7Nybm83bt2z7Q2z6bc4xWgn3R9KdRzSJUVYzW0qJrv7T9pvA27dsFy2z/vnOMU8aZGt4brz7osTnyzOxT/vnOK0KKOZlciMuPSo4bnz1ubxjkna9yzLz/sk4xRHpMcVz54ubxm3Ftr3Llee2CcY9q06KOZhyIzE0qOK488XN4zbi21rhivPbBOMe1KmkxxXPni5vGbcW2tcuV57YJxj2rSoo5pByIzU0mKK588XF4zbi21rhyvPbBOMe1NTSY45zP8AaLtm5O1rhivI9M4rUpr/AHD9KOaQpQjbY5LwdZItrcS+dcEieRNnnMV69cZxmqPjLw5cXGmwR6f9su5WnXKyTs4A2tz8xwOcc+9bHg//AI8Lr/r6l/nXR/w1pRrzpzU1ujkpUI1cOos8r0/4aX8+1765jt067E+dv8P50vibR49FltLaO4uZwYzzPJuxz29K9UFee/ED/kJWn/XJv5ijGYytXi1N6HDj8JTo4ZuC10OQq1pc8dtqlrNKf3aSKzH29fwqrg+lGD6V5S0ex81HmhJNLVHU+INEurjULjUomiktGQSF9w4AGCB+VdDH9qGpWr2xh/sUW/z/AHcdD/8AY/rXm+99uzc23+7k4o3OE2BnCf3cnFbKok9j04Y1Qk5KD113/wCBsdu1/wDYtDsWsCBG98yDAHMZdv0q2l5JDrOtLEwVRAsigAcPt6/oK88+YADnA6UZbJOTk9T60KoP+0pq3u7W/K3Y7jR7h5tK0yaVtzveszHgZJD07TtRuLrxZdxTMpjgSQRqABgbl/8ArVwoLDGCeOgoGc8E0vaOyQlmEuVLlen4/gd3b6xdvoulTM6maa9WORto5Qucj26VJY3FpaDWJfLnBSfMm0/L984K54471wGW45PHQVettY1G0t0gt7hkjU7gAoPOc9TzVKrrqaUsxd05J6f5WPTJpmWzaQS3ASOPeZIwjeZ7Yx149BXLXtvc6x4ZhNrG8jNdySYfCkAl+o49a5869qr3InN7MGHGBjHv8vQ1EdV1FoPJ+1yqu4vhWx8x5PIwe/enKopI1r5jCquVp2tY6HQ9IvtPt9TkurcxK9syqSQcnn0NciOg+lXY9V1CIOq3c5WQbWDPuBB+tUsccD9Kyk07JHmYipGcIwpp6X3DvXZfD7/j6vf9xP5muNAOeldl8Pv+Pq9/3F/maKXxovLIyWKh8/yPQB0rnPGf/IKg/wCvmP8AnXRDpXO+M/8AkFQf9fMf867JbH1uJ/gy9Dok+4PpS9qRPuD6Uvambx2FooooGFFFFABRRRQAUUUUAIeleU+I/wDkYbz/AHx/IV6sa8p8R/8AIw3n++P5CvSyz+K/Q8HPv4EfUy6KKK9w+UCiiigQUUUUAFFFFABRRRQAV3XgL/jyvP8ArqP5Vwtd14C/48rz/rqP5VxZh/AfyPVyb/el6M7Giiivnj7UKKKKACiiigAooooASmv9w/SnU1/uH6U0TL4WeQXH/HzN/vt/Oo6kuP8Aj5m/32/nUdetHZH51V+OXqFFFFUZBRRRQAUUUUAFFFFABRRRQAUUUUAFFFFABRRRQM1fDf8AyMNp/vH/ANBNeoV5f4b/AORhtP8AeP8A6Ca9Qrz8V8SPrsh/gS9RaKKK5j3QooooAKKKKACiiigAooooAKKKKACiiigBKa/3T9KdTX+6fpQTLYwfCX/IJk/67SfzroK5/wAJf8gmT/rtJ/OugrSp8bMMJ/Bj6BWfrM8tpo15cQ482OFmTIzyBxWhWfrNxLaaNeXEOPMjiZlzzyBUR3RvL4WXl+6v0p3amr91fpTu1Ia2FooooGFFFFABRRRQAlNf7h+lOpr/AHD9KBS2Od8Hf8eF1/19y/zrpK5vwd/yD7r/AK+pf510lKOxhhf4SCmMqt1UH604niuW8SeJ5tEuYoo4FkDqWJZiOhxSlJRV5bFV60KUOaex03lJ/cX8qXyk/uL+Veff8LEuP+fKP/vs/wCFH/CxJ/8Anxj/AO+z/hWH1uj/ADHD/aeE7/geg+Un9xfyo8qP+4v5V59/wsSf/nxj/wC+z/hR/wALEn/58Y/++z/hR9bofzIP7Uwnf8D0Hyo/7i/lSeVH/cX8q8//AOFiT/8APjH/AN9n/Cj/AIWJP/z4x/8AfZ/wo+tUP5kH9qYTv+B6D5Sf3F/Kjyk/uL+Veff8LEn/AOfGP/vs/wCFH/CxJ/8Anxj/AO+z/hR9aofzIP7Uwnf8D0Hyo/7i/lR5Uf8AcX8q8+/4WJP/AM+Mf/fZ/wAKP+FiT/8APjH/AN9n/Cj61R/mQf2phO/4HoHlR/3F/Kjyo/7i/lXn/wDwsSf/AJ8Y/wDvs/4Uf8LEn/58Y/8Avs/4UfWqH8yD+08J3/A9B8qP+4v5UeVH/cX8q8+/4WJP/wA+Mf8A32f8KP8AhYk//PjH/wB9n/Cj61Q/mQf2phO/4HoBijP8K/lShUH3VA+grz7/AIWJP/z4xf8AfZ/wre8N+JpdclnR7dYxGFIKsTnOfb2qoYilN8sXdmlLH4apNRg9X5HS1znjP/kFQf8AXzH/ADrox3rnPGf/ACCoP+vmP+day2OjFfwZeh0afcH0pe1In3B9KXtVG8dhaKKKBhRRRQAUUUUAFFFFADO9eV+I/wDkY73/AHx/IV6ofSuR8UeG2vCb6zXM4Hzx/wB8f412YCtGnV9/qjyc3w861D3FezucLRSujRuUZSrA4IYYI+tJX0S1PjGrOzCiiigQUUUUAFFFFABRRRQAV3HgMf6Ldf8AXT+lcXBbzXMywwRtJIx4Vef/ANVel+HdIOk6d5bkGZzvcj19PwrzcxqRVPkvqe3ktGbrqdtF1NyiiivDPrwooooAKKKKACiiigBKa/3D9KdTX+4fpTRMvhZ5Bcf8fM3++386jqS4/wCPmb/fb+dR160dkfnVX45eoUUUVRmFFFFAgooooGFFFFABRRRQAUUUUAFFFFABRRRQBq+G/wDkYbT/AHj/AOgmvUK8v8N/8jDaf7x/9BNeoV5+K+JH12Q/wJeotFFFcx7oUUUUAFFFFABRRRQAUUUUAFFFFABRRRQAlNf7p+lOpr/dP0oJlsYPhL/kEyf9dpP510Fc/wCEv+QTJ/12k/nXQVpU+NmGE/gx9ArP1q4ktNFvLmHHmRRMy5GeQK0Kz9ZuJLTRry5ix5kULMuR3AqI7o3l8LLycqpPXFO7U1eVU+1O7UhrYWiikoGRtIiYDMBk4GTjJpn2qDzPL86PfnG3cM59MVSv7VLi8053eMeTcGQK/VjsYAD3Gc/gan/syx8/z/sVv527d5nlLu3eucZz707JEXk3oTfaoPM8vzo92cbdwzn0xR9qg8zy/Oj3Zxt3DOfTFQ/2bY+f5/2K387du8zyhu3eucZz70f2ZY/aPP8AsVv527d5nlLu3eucZz70aB7xN9qg8zy/Oj3Zxt3DOfTFIbiEsY/NQv027hn8qiOmWH2jzzZW/nbt3meUu7d65xnPvSHTrITG5FpAJ8k+aIxuyeCc4zmjQUuaxi+EJovsNynmLvN1JhcjNL4q8S/2HYQ3FsIZ3M4jdN/O3BPbp0FReELK2+y3E5t4vOW7lAk2DcO3Wm+KfCiatYxQ6dBa283nh5HKbflwc9Bk8kVrhlS9pHn+E44+0+rfu97EOm/EbSboBLtZLSTvvG5c/UVi+OL21v7izmtJ45ozGfmjYEdRWnp3w00+AB7+4luX7qvyL/U/rWT4002y0y4tYbG1igQxHIRQM89z1NTmywnspexv+n+ZwY36x9VftbdPU5aiiiviup88bOhaLHqKzXN1OYbO3GXIHJ9h+VF5a6VdtDFov2mS4eTBjlwMjGcjP+farPh2/slsLzS9Qk8uG6AKyY4zjHJ/AVNY6fo2nanavcatFcoS2QnAXg4JIJ+ld8KcXTiklrv956lOnCVKKSWu7e61Me80TUbFoVuLYp5rbEIYEFiemQetTS+GdXghklks2EcfLEOp49cZzXQarqNh/Z9lBHdWhaK9R3S2BCqoJJ4/Hk0v9s2h17VXa9T7PLahIzv4Jx0H5mtHhqCbXN+K7GjweGjLlcvxXmc1b6Fqd3Zi6itiYSNwdmC5HqAe1Lb+H9Vu7T7TBZu8XJGSAT9ATyK3Lyaz1jTLBotVSyNvEQ8JOCCBjIGf85rSg1uxex0+eC5sYZIItjpcZDJwAQvNKOFo3actvQUcHh3LWWlu61/4YyLPQ7Kew0WV8RyTzlZC7HDgE/Lj1OAK17bwhp0cckjxTXLM/lgKQFUE/eXpwAfXsar6dqMN3Fo8ca2804uHkliPHlgsSWAPpnIrftZ/MsS92kNt5sv7wSEBXXJwR83BIA/wrso0qUle39WR6GHoUHFaJ7fkcw/hSwh1G7ilku1t7eAS7zt+Y98YHTgdvWqVrY+Gbu5jt47y/wB8jBFBUAc9P4a6JEabU9WgeOK2Q2myJ9+4MpLYdj/npWFpfh1INTtZRq1g/lyK2xZOWwe1ZSpLmXLFW6mFSjBSXs4ppt3MHVbVLHVbm2iZmjicqpbk461UrT8Rf8jBfc5/eH+QrMryaiSm0u54ldJVZJdw7V2/w6/4+73/AHV/ma4jtXb/AA6/4+73/dX+Zrry7+Ojoy7/AHqHr+h6GOlc34z/AOQZB/18R/zrox0rnPGf/IMg/wCviP8AnX0Utj6vF/wmdGn3B9KXtSJ9wfSl7UzeOwtFFFAwooooAKKKKACiiigAooooAyNS0HT9TGbiEeZ/fXhh+Vcre+CLqPL2dwkg7JJ8p/MZzXfmk7V0UsTVpfCzhxGX4evrOOvc8nn0TUrYkSWU3HUqu4fpVBlKHDqVPoa9owD1FQvbxSDDRqw9wK7IZpL7UTy6mQxfwS+88cyPUUmR616//ZtketpD/wB+xSf2XY/8+cH/AH7H+Faf2ov5fxMf7An/ADr7jyHI9RUkcMspAiieQ/7Kk/yr1wadZqeLWEfRB/hU4RVGFUAewpSzTtH8So5A/tT+5Hltv4c1W5I2Wbqv96XCD9ea3bLwM5ZWvbkAd44hnP4n/Cu3FGcCuapmFaei09Duo5NhqbvK7fmUdP0q002MJbQqnqcZJ+pq+BxR2oxxXE25O7PVhCMFyxVkOooopFhRRRQAUUUUAFFFFABSMMqRS0HpQB5dqWh39tfTKttLLGXJRo1LAg89ulVP7Mv/APnyuf8Av03+FesY5pdoznArqjipJWseBUyKlOTkpPc8m/sy/wD+fK5/79N/hSHTr5VLNZXAAGSTGf8ACvW8D0FV7wD7HNx/A38qaxT7GcsgppN87PK47C8lQPHaTup6MsZI/PvTv7Mv/wDnyuf+/Tf4V3/hf/kXbP8A3T/M1sjp0/Cm8U07WIpZFTnCMnN6q+x5P/Zl/wD8+Vz/AN+m/wAKP7Mv/wDnyuf+/Tf4V61tHoKNo9BS+tvsaf6v0/52eS/2Zf8A/Plc/wDfpv8ACj+zL/8A58rn/v03+FetbR6CjaPQUfW32D/V+n/OzyX+zL//AJ8rn/v03+FH9mX/APz5XP8A36b/AAr1naPSl2j0FH1p9g/1fp/zs8ilsbuGMvLazIo/ieMgCnjTb48iyucH/pma7zxZ/wAgGbjun/oQrahwYxwOlU8U7J2Mo5HTdRw53oeU/wBmX/8Az5XP/fpv8KP7Mv8A/nyuf+/Tf4V61tHoKNo9BU/W32Nf9X6f87PJf7Mv/wDnyuf+/Tf4Uf2Zfn/lyuf+/Tf4V6ztHoKNo9KPrb7B/q/T/nZwPhjR7tdWjupoHhjiBPzqRkkY713w6UoUDtQKwqVHN3Z62DwkcLT5IsdRRRWZ2BRRRQAUUUUAFFFFABRRRQAUUUUAFFFFACU1/un6U6mv90/SgmWxg+Ev+QTJ/wBdpP510Fc/4S/5BMn/AF2k/nXQVpU+NmGE/gx9ArP1i4ktNGvLmLHmRRMy555ArQrP1m4ktdGvLiLHmRRMy59QM1Ed0by+Fl5PuqfandqanKr9Kd2pDWwtJS0lAzMvoBLfac5kRPKnLBWOC/7thgep5z9Aa0+1Zt9AJb7TXMqJ5U7Nhjgv+7YYHqec/QGtKm9kRFasWiiikWJTX+6fpTqa33TQKWxzng//AI8Lr1+1y/zrpMVxujata6I13ZahJ5MguXkUspw6tyCDWv8A8Jbon/P+n6/4VMWrHHQrU4U1FtI2u1cp4n8M3WtXUUsEsSKiFTvzk857Vo/8JZof/P8Ax/kf8KP+Es0T/n/j/I/4VM+SS5ZbDrvD1ock5K3qch/wr/UP+e9v+bf4Uf8ACv8AUP8An4g/Nv8ACuv/AOEs0P8A5/4/yP8AhR/wluif8/8AH+R/wrD6rQ7I4fqOB7r7zkP+Ffah/wA/Fv8Am3+FH/CvtQ/5+Lf/AMe/wrr/APhLdE/5/wBP++T/AIUf8Jbon/P/AB/kf8KPqtDsh/UcD3X3nIf8K+1D/n4t/wDx7/Cj/hX2of8APxb/AJt/hXX/APCW6J/z/wAf5H/Cj/hLdE/5/wCP8j/hR9VodkH1HA9195yH/CvtQ/5+Lf8A8e/wo/4V9qH/AD8W/wCbf4V1/wDwlmif8/8AH+R/wo/4SzRP+f8Aj/I/4U/qtDsg+o4HuvvOSXwBqSNuS6hVumQzD+lD+AtTcKr3cTBRhQzucfTiut/4S3RP+f8Aj/I/4Uf8Jbon/P8Ap+R/woWHoroh/UsEvtficmfAWpk83UJ4A+83QfhTB8PtQByLiAH6t/hXX/8ACW6J/wA/8f5H/Cj/AIS3RP8An/j/ACP+FH1ej2QfUsF/N+JyJ+H+oE5Nxbk/Vv8ACk/4V9qH/Pxb/m3+Fdf/AMJbon/QQj/I/wCFH/CWaJ/z/wAf5H/Cj6rQ7IX1HA9195yA+H+oH/l4g/Nv8K6Dwt4budEmuHnljYSBQNme2fX61f8A+Es0T/n/AE/I/wCFH/CWaJ/z/wAf5H/CnToUab5opXLpYbB0pqcWrrzNoADpXO+Mf+QTAP8Ap5j/AJ1Y/wCEs0T/AJ/0/I/4Vj61qtprYtbHTpDPK1wjMVU4VQckk1vKSa3OnEVoTpuMWm35nZJ9wfSndqan3R9Kd2qjsjsLRRRQMKKKKACiiigAooooAKKKKACiiigDO1XUodLsmuptxVWUYGM8kDv9awR43tDatKIJNyFQVLDuxAH5DPSrnjHcdAlIBYKyllU4LDuK4K2WGKza7SWPzLSRGRfMyszE84GMjjHtXo4XDUqlLmkne552KxFSnU5Y9jvZfFWmxNbiOdJVmLAsrgbMDPOfwApsXiqKRrYNZXKJcOqI7FMZbp0auSuF2adpEiTWuwpK7vt3EOQSVPtzj1qLR4iuoWUpUIrtHEkhgQ/vAeeM5HQ/N1NX9TpcjfqZPF1OZL0OyvfF9laCfZDcSvDJ5bYjIXcDjG48Vd07XYNRlWJLe6jcpuPmQsqj2zXnt2Ybi5uJgysn2mZyG8wB1zgEbQR6/wBa3fBk0DXKBkVZjCfnDyMW5Gcg/KPwqKuFpxo8yTuXSxNSVXldrHejpRQOlFecemFFFFABRRRQAUUUUAFFFFABRRRQAUUUUAFFJmloASoLz/jzm/3G/lU9QXn/AB5zf7jfyprcmfwszPC3/IuWn+6f5mtqsXwt/wAi5af7p/ma2u9OXxMyw38GPoLRRRUm4UUUUAFFFFAGD4u/5AE3+8n/AKEK2of9Sv0rF8Xf8gCb/eT/ANCFbUP+pX6Vb+BHLD/eJeiJKKKKg6hKKTIPemebGCwLqCvUZ6UCuiSio1mjc4WRSfZqGmjVlUuoZugJ5NMXNHckopMj1qJ54o2CtIitjOCcUgcktSalpqnPNOoGgooooGFFFFABRRRQAUUUUAFFFFACU1/un6U6mv8AdP0oJlsYPhL/AJBMn/XaT+ddBXP+Ev8AkEyf9dpP510FaVPjZhhP4MfQKz9ZuJLTR7y4i2+ZFEzLu9QM1oVn6zcPaaNeXEe0yRRMy7uRkDNRHdG8vhZeX7q/Sn0xPur9KfS6jWwUlLSUDM2+g82905/MRPKnLbWOC/7thgep5z9Aa0u1Zt9B519pz+YieVOz4Y4Lfu2GB6nnP0BrSpvZERWrFooopFhRRSUAQyW0MoxJEjj/AGlBqH+zrP8A59Yf+/Y/wq3S0EckXuip/Z1n/wA+sP8A3wP8KP7Osv8An1i/74H+FWqKLIPZx7Iq/wBnWX/PrF/3wP8ACj+zrL/n1i/74H+FWqKLIPZx7Iq/2dZf8+sX/fA/wo/s6y/59Yv++B/hVqiiyD2ceyKv9nWX/PrF/wB8D/Cj+zrL/n1i/wC+B/hVqiiyD2ceyKv9nWX/AD6xf98D/Cj+zrL/AJ9Yv++B/hVqiiyD2ceyKv8AZ1l/z6xf98D/AAo/s6y/59Yv++B/hVqiiyDkj2RV/s6y/wCfWL/vgf4Uf2dZf8+sX/fA/wAKtUUWQckeyKv9nWX/AD6xf98D/Cj+zrL/AJ9Yv++B/hVqiiyD2ceyKv8AZ1l/z6xf98D/AAo/s6z/AOfWL/vgf4Vaoosg9nHsip/Z1p/z6w/9+x/hU0dtDCD5cSJ/uqBUwooBQitkApaQUtBYUUUUAFFFFABRRRQAUUUUAFFFFABRRRQBVu7K2vojDdQJLHkNtYZGarnRdNMySmzg3p91gg4rRNFUpySsmS4RerRkt4f0lmDNYwEgMB8vHJJPH4mlXQdLWZZls4RKshkDgc7ic9fxrUo/Kj2s+7J9nDsirFY20NubeKJEiO7KAYHPX+dSW9tDawJBAgSNBtVR2FT0UnJvdlKKWyFooopFBRRRQAUUUUAFFFFABRRRQBzWpXF/aa7Zxi6/0a4lwIwgGAAM5PU5Jqx4ivbizsInt5CjtMqEhAxwc9Ae9Q6no+oX2oxXMV3DGsDZiDRkkZAznnmnaxp13exWcQ2OsbGSYjgkhTjA+prZcuh5lT2qjUST121/Iwjd6rEZZorm/eRxkK1p8v06nH5Vdv8AVLlLuKI3V6khjB8uOBSGOBkgn61SOg6h/Z23+zk87Z9/7S27P+70zV6/8P393IZVliH7lUVHXJUjB4P171q+S+rRwxWJ5XZPp1f6kNjqOqQ3zmVo3SW8ELqSxKkgHC88DHNdmPfrXHWelaoJrVZoRg3P2maXeOuCNuK7FR3rKra+h6GXqooNTv8AMdUF5/x5zf7jfyqeoLz/AI85v9xv5Vktzvn8LMzwt/yLlp/un+Zra71i+Fv+RctP90/zNbXenL4mZYb+DH0QtFFFSbhRRRQAUUUUAYPi7/kATf7yf+hCtqH/AFK/SsXxd/yAJv8AeT/0IVtQ/wCpX6Vb+BHLD/eJeiH1U1CMS2MqMrOCp+VGwW9gat1WvLcXdq0Jlki3Y+eNsMO/BqVubzV4tHN+Fz5eo30O2SEAKVt3YsVHrk1kahMr3mrx/aHcSbFyYztJDdCQOMdB68112naPDp8sk4klkmkADSStuOB2rOudAu7qa7JuokW4kTO1OQi5x+PT8q3Uo8zbPIq4as6Cgt9fxMLTAjahvUFR5TofKU7ifbCgZ+tNQJKLqW8nuoJoEDQCaY7wCO/HrjpW5Z+Hb61uHmW8hZiWbcUYEkj0zjr7USeGJ7x/Ov8AUWe4AwjRoAqd+nerlON9GcscNiORJx1+VvzM1ZLiHTBNK2oxTGVIzun2hie4JHSs+6ZZhHPNLdOHEsOwyhySMYAIHQk11Mmjanc2vk3GpQvhsgm2VuPoe9U28LXeQ8V8pkiIaIGIKoPfIH0FKNSK1KrYavJKMU7fLf5HQaVE0Gmwxuzs4Ubt7biD6Zq93xVLTLQ2WnQ2zSb2RcFvU96uj0rmlqz3qKagk10HUUUUjQKKKKACiiigAooooAKKKKAEpr/dP0p1Nf7p+lBMtjB8Jf8AIJk/67SfzroK5/wl/wAgmT/rtJ/OugrSp8bMMJ/Bj6BWfrFy9po95cRhTJFEzLu5GQMitCs/Wbh7TRry4j2l4omZd3IyBmojujeXwsvL91fpT6Yv3V+lPpdRrYKSlpKBmbfW/nX2nP5iL5U5fDHBb92wwPU85+gNaXas2+tzNfac/mIvlTs+GOC37thgep5z9Aa0qb2REVqxaKKKRYUUUUAFFFFABRRRQAUUUUAFFFFABRRRQAUUUUAFFFFABRRRQAUUUUAFFFFABRRRQAUUUUAFFFFABRRRQAUUUUAFFFFABRRRQAUUUUAFFFFABRRRQAUUUUAFFFFABRRRQAUUUUAFFFFABRRRQBBKG8lxGwV8HBIzg+uK4Y6/qv2qJfPC5DZBhx045FdzMhlheNWKllIDDqK4M6HfPqqwCD/VqcyFcIeB32jNb0eV35jyczdZcvsb/I0Zdbv00ZZi0fnTFtrPtj8sDjoTyapweJ78pbxLc2zsw+Z50KAfVs4P4VJJpN3ZabDE6XEtwJGMfkKrKucdSRwO9V5dPvreBbNBeSTnBOIlMILdeT6VqlTs9jglPF8yeq01O7hdZY1kRgysAQV6GpqiiUJEqgYAAGBUorkZ9HG9lcKgvP8Ajzm/3G/lU9QXn/HnN/uN/KhbhP4WZnhb/kXLT/dP8zW13rF8Lf8AIuWn+6f5mtqnL4mZYb+DH0QtFFFSbhRRRQAUUUUAYPi7/kATf7yf+hCtqH/Ur9KxfF3/ACAJv95P/QhWzD/qV+lW/gRyw/3iXoiTpWF4meRbO3WOWSPfcIhKNtJBPrW7WPr9lcXlrCtqqNIk6SYc4GBRC3MrlYpSdKSjucxHK8piObxIpmZEk+2k8jPbHtU93PdQwXE0b3ULGOPMhkHlnj7wzk+2BU48PX0TGWK0sBLzhhLJ1IxmnXGg6jP9ocTBCYEjRBg7gF5Ge3zd66OaHc8X2WJSejv/AMP5GZpM873sMMV7LiUb5o/NGcnqQcfp1FVbm6ujJFvuJ+JuP3jHvweW9PpW3Z+G7yKe3d2iSPP72JXbH3cbgfU+nSo7jwvdNfRIjA26sC0hIB+mAP601OHNuYvD4p0rNPfv6DLK+uo9Nu5VupDMJFjXcWl2g99oJwetZlvJqcSSR273gdZB5jg+vcpyc4roG8NtbWd0IlS7knZTskPlgAe4qm/he4it9qW0E80gYtIZGQRk9Ao7iiM4a+ZpPD4q0bp6LudLo05m06Ml5nIGC8ybWb3xWl2qjpVm1lp0Fu5BeNACR61eFcsrX0PfoqSppS3FoooqTUKKKKACiiigAooooAKKKKAEpr/dP0p1Nf7p+lBMtjB8Jf8AIJk/67SfzroK5/wl/wAgmT/rtJ/OugrSp8bMMJ/Bj6BWdrNw9po15cRhS8UTMu7kZAzzWjWfrNw1ro95cIFLRxMw3dOBnmojujeXwsvJ9xfp2p3amp91fpTu1Ia2FpKWkoGZt/bma+05w6L5U5chjgt+7YYHqec/QGtLtWbe25mv9NkDovkzs5DHBbMbDA9Tzn6A1pU3siIrVi0UUUiwpp6U6mN900Cexz8viOZ7uaDT9NmvDC2x3VgqhvTJpP7d1n/oXpv+/wAtN8HgfYLo/wDT3L/OukwKlXauclOM6kVLmav6HO/27rH/AEL03/f5aP7d1j/oXpv+/wAtdFRRZ9yvYVP539y/yOd/t3WP+hem/wC/y0f27rH/AEL03/f5a6Kiiz7h7Cp/O/uX+Rzv9u6x/wBC9N/3+Wj+3dY/6F6b/v8ALXRUUWfcPYVP539y/wAjnf7d1j/oXpv+/wAtH9u6x/0L03/f5a6Kj8KLPuHsan87+5f5HO/27rH/AEL03/f5aP7d1j/oXpv+/wAtdFRRZ9w9hU/nf3L/ACOd/t3WP+hem/7/AC0f27rH/QvTf9/lroqKLPuHsan87+5f5HO/27rH/QvTf9/lo/t3WP8AoXpv+/y10VFFn3D2FT+d/cv8jnf7d1j/AKF6b/v8tH9u6x/0L03/AH+Wuioos+4ewqfzv7l/kc7/AG7rH/QvTf8Af5aP7d1j/oXpv+/y10VFFn3D2FT+d/cv8jnf7d1j/oXpsf8AXZaSLxHMlzDBqGmzWfnNsR2YMpb0yOldH+Fc34x/5BsBHT7TH/Ok7rW5FSNSnFz527eSOkU5p1MT7tPqzsWwUUUUDCiiigAooooAKKKKACiiigAooooAKKKKACiiigAooooAKKKKACiiigAooooAKKKKACiiigAooooAKTA9KWigAooooATtVe8/485sf3G/lU9Zuq6jaWVuyXEyxmRGC7u/FOKbehnVkowbk7EHhbP/AAjlp/un+ZrYB5xXNeGdUtE020sTcJ9owRsHrkn+VdIOcZ6iqmmpO5lhJxlRjyu+iJKKKKg6QooooAKQ0tNc4FAGF4t/5F+f/eT/ANCFbUJ/dLj0rmPE+q2U2mXFnHcxm4DAFDnOQRmtnT9Usr393bXCyOg5C9q0cXyJ2OCFam8TJKS2Rp0UUVmd4UUUUAFFFFABRRRQAUUUUAFFFFABRRRQAUUUUAFFFFABRRRQAlNf7p+lOpr/AHT9KCZbGD4S/wCQTJ/12k/nXQVz/hL/AJBMn/XaT+ddBWlT42YYT+DH0Cs7Wbl7XR724RUZoomYBxwcDPPtWjWfrNw9ro95cIqFoomYBxwcDPPtUR3RvL4WXk+6v0p3amp91fpTu1Ia2FpKWkoGZt/AZr7Tn3oohnLkMcFv3bjA9Tzn6A1pdqzb63M19p0gdFEM7OQxwW/dsMD1POfoDWlTeyIitWLRRRSLEpr/AHT9KdTX+4fpQKWxzvg7/jwuv+vuX+ddJ3rm/B3/AB4XX/X3L/Ouk70o7GGG/hIWiiimdAUUUUAFNPQ0tIfu0gOEl8V6kurSQqtqIFujAMgl+O+M/rVWTxlq0dpHOzafmQbkh2vvIyRnrjsazZkJ1yWVYY/LbUXUTE/Nn+7j071RgaeO3ghSe4WSZU+zbZPl5cg57j8P614jxFXmaufOTxVaM2ubudfr/iy5tV+z2UZE6bfOkaM7I8gHHIxTD40v42ihFhDcSyAbfKuA5b3wBxWX4jgubZ53uBdyW2FVWNwAjHaOduCTzVJrQ2enR3cul3FsVUZuIbrZnPAO0gkdq0derzuzLnia6qP3mkv67M7PWfEd1pslhFFZLLNd5GxpMbTxxnp3qxoGvnVmuY5bYwT27bZF3hh37/ga5fxDGkf9gLJcSqhyWld8uuSpzn25q/4Hk2X2o20Lia1Rtyz7cF2Pqe9dMKs3W5W9P+AdUMRVddQb0+XY7gdadSDrS13nrBRRRQAUUUUAJXN+M/8AkFQf9fMf866Sub8Z/wDIKg/6+Y/50pbHPiv4Mjo0+4PpS9qRPuD6Uvambx2FooooGFFFFABRRRQAUUUUAFFFFADT0pB0rN1HXNP00YuJwH7IvLH8BXM3njmQkrZ2wUf35if5Ct6WGq1PhWhxV8fQo/HLXsdzSbl9RXl8/ijV7gkfaigPaNQP8TUIXWbw52303/feK6Vl8l8ckjhlnUW7U4NnqvmL/eH50eYn94fnXlf9haw//LlP+P8A+ug+HtYHP2GX8Mf40/qVP/n4if7Wrf8APp/j/keq7h/eFLmvKf7J1mLn7Ldrjuuf6Un2/WrEjM13FjtJnH5Gl9QT+GaY/wC2XH+JTaPVhS15xbeM9ThwJPLnXvkYP5it6y8bWM2Euo3t2PGfvL+Y5/SsamCrQ1tdeR00c1w9V25rPzOqoqGC4iuIlkhkV0boynINTVytWPSTTV0LRRRQMKKKKACiiigAooooAKKKQnAJoAbn2pT0rB1DxdomlXBtrm8HnL95EUtt+uBxVT/hYXh3/n6k/wC/Lf4VtHC1pK8YNr0MJYmknZySfqdR9K57xfafatJMqDLwNvB9uh/z7VB/wsHw9/z9Sf8Aflv8Krah448PXen3Fut3IGljZAfJbqRj0rWGFxEZJ8j+45sVVo1aMoc61XcpeC7PztTkuiPkhTA+p4/kDXfE/wD6q8+8OeLNC0vTRHPcuJ3YtJ+6Y89ucemK2f8AhYHh3/n6k/78t/hVVsNiJTvyP7mYZbOlQw8Yykr7vU6ml59a5X/hYXh3/n7k/wC/Lf4Uf8LC8O/8/cn/AH5b/CsvqeI/kf3Hf9aofzr7zqufWjn1rlf+FheHf+fuT/vy3+FH/CwvDv8Az9yf9+W/wo+p4j+R/cH1qh/OvvOpoNct/wALC8O/8/Un/flv8KP+Fg+HT/y9Sf8Aflv8KPqeI/kf3MPrVD+dfeYnjGz+z6wJ1+7cID+I4P6Yra8E2fl6fJdsOZmwv+6OP55rD8S+KNC1WxUW9y7To2VBiYZB4I6f5xWnp/jbw7ZWUNuLqT5FCk+S3J7npXTKhXdJR5Hf0Z41GnRhj5VXJW6anac+tHPrXK/8LC8O/wDP3J/35b/Cj/hYXh3/AJ+5P+/Lf4VzfU8R/I/uPZ+tUP51951VFcr/AMLC8O/8/Un/AH5b/Cj/AIWD4eP/AC9Sf9+W/wAKPqeI/kf3B9ao/wA6+86ntSisfSvEml6yWWyuRI6jLIVKsB9DWsO9YShKD5ZKzNozjNXi7j6KKKRQUUUUAFFFFABRRRQAUUUUAFFFFABRRRQAlNf7p+lOpr/dP0oJlsYPhL/kEyf9dpP510Fc/wCEv+QTJ/12k/nXQVpU+NmGE/gx9ArO1m5a00e8uERGaKJmAcZBwM8+1aNZ2tXDWmj3lwiI7RxMwVx8pwM81Ed0by+Fl9Pur9Kd2pq8qv0p3akNbC0lLSUDMy+tzLfac4ZFEM5c7jgt+7ZcD1PP5A1p9qzL63Mt7psgdF8mdnIY4JHlsuB6nn8s1p03siI7sWiiikWJTX+4fpTqa/3D9KBS2Od8Hf8AHhdf9fcv866Sub8Hf8g+6/6+pf510lKOxhhf4SDtTeKdWRqevWGlSpHdSFGcblAQnjp2p3S3NZ1I01zSdka1Fc8PGui97h/+/Tf4Uf8ACa6L/wA/D/8Afpv8Knnj3MPruH/nX3nQ0jDIOelc/wD8Jpov/Pw//fpv8KP+E00X/n4f/v03+FLni+ofXcP/ADr7yMeD9NW5SZTN8js4XzONx749u30FRR+BNJSF0fzpCwA3s+CuPTFWf+E00X/n4f8A79N/hR/wmmi/8/D/APfpv8Ky9lR7I53LA3u2hT4U05r9buUTS7AAkcjkomPQf5FRXHg2xubp5Z57t0eQyGFpfkB9hjgVJ/wmmjf8/Df9+m/wo/4TTRe9y3/fpv8ACn7Ol2Q/a4J6XRqzadZ3KoJ7WGQJwokQNge2alhtobZBHBEiKP4UUAflWJ/wmmjZ5uW/79N/hS/8Jpov/Py//fpv8KtOCd9DVYrC3vzI6LvSVz3/AAmmi/8APy//AH6b/Cj/AITXRf8An4f/AL9N/hT549yvruH/AJ1950NFc9/wmui/8/D/APfpv8KP+E10X/n4k/79N/hT549w+u4f+dfedBS1z3/CaaL/AM/L/wDfpv8ACrmma7Yaq0iWcpYxgFsqR1+tCmn1KhiqM5KMZJv1NWuc8Z/8gqD/AK+Y/wCddGK5zxn/AMgqD/r5j/nRLYMV/Bl6HRp9wfSl7UifcH0pe1Ubx2FooooGFFFFABRRRQAUUUUANNcZ4o8SS28rWFo2xwP3ko/h9h7+9dma8q8R/wDIxXn+/wD0FduApQqVff6I8jOK86NBcjtd2M0sXcs252Y8knJJ/wAkV2mleDYvLjm1F/McgExrwo+p6muJzjn8eO3oa7HSvGapHHDqCEFRgSoM5+o6/lXp41VeRex+fc8LLHh3VbxHy/4J1ltp1naDEFrFGB/dUCreBjgCqFrq9hd48m6hf23YP5VfyuOCDXgyUr+8fXQdK37u1vIcOlLgelIDxRketSa6Bx6UworA5AI9xTtw9RUbyxxqSzqo7kkCnr0JbhbUzLzw/pl8DvtUVj/HH8p+vHWuJ17w8+jskqSb7d22hm4ZT2z612l74m0uyBDXKyOP4IvmP6VxGu+IJdZkVFTyrdGyqE8k+p/wr0sCsRzdeXzPAzWWD5Ha3P5fqUtP1O50ycS28pUZ+ZD91vqK9L0bVI9WsEnQbW6OhOSrV5RXceAx/ot0f+mn9K3zGjDk9olqcmS4qoqvsr3T/A7OiiivFPrQooooAKKKKACiiigBKRvumlpG+6aaE9j56vneXULp3OXaZySe5yc1Xqa7/wCPyf8A66N/Ooa/QKP8NHxdT42FFFFaGYUUUUAFFFFABRRRQAUUUUAFFFFABRRRQAUUUUwOg8EuyeL7DaxG5mU+42mvbRXiHgv/AJG/Tv8Afb/0E17eK+Szv+OvT9WfR5T/AAX6jqKKK8Y9YKKKKACiiigAooooAKKKKACiiigAooooASmv0P0p1NcZBFBMtjn/AAl/yCZB/wBNpP510P8AOuVstP17TYWgtjZFN7MN+7PJ9qt48Teunfk9aSinJu5w0KzhTUXF6eRv1n6xcG10e8uFRHMcTMFkGVOBnn2qhjxN66f+T1T1KbxFbadcTyjT3jjjLMpDcgdqcaeq1RrLFaP3X9x1K/dH0p1c+P8AhJsDnTvyelx4m9dO/J6Tp67oFif7r+43qDWDjxN66d+T0hHibHXT/wAnpez80P6z/df3F6/tWmvdOk3IBDOzkMcEgxsuB6nn8s1o1y11beIprmykZtPBhlLqMsMnYy/jwxq3jxN66d+T1ThotUJYnV+6/uN6lrAx4m9dO/J6MeJvXTvyep9n5of1n+6/uN6kb7pz6VhY8Teunfk9If8AhJscnT/yej2fmhPE6fC/uI/B+f7Ou/T7XL/OtebUbO2uFt5p445XXcqscZrlfD39s/ZLj7CbXZ577vN3Z38Z6dqzfEwvRew/2h5Bl8vjys4xn3/Gqp0uZ2bOCWOlRwylGD+e256MrhlypBFef+P8/wBpWmf+eTfzFUtKGslh/Z32jbn+H7n68UnioagJrX+0vK8/yzjys9MjrWeJpckdzlxeOeIwrvBrb0OfooorzT57qFKqs7BVBLE4AHc0lKpKsGU4IOQRQNW6l7+xdTIz9gn+u2qTo0cjI6lXQ4YEYIPpXVQ6hef8IPNObqXzhOB5m87gMjjNQxw6XB4bh1K+tHnuZZHUt5jAsxLcnn2rVwXQ9OeCpu3JLpfXY5mrkWmXU9olxFCZI3kMQCcsWxnAA9ga6a30PTrs2WoJCEsTC7zpuPDD3z65/KtjS2Y6Pb4NuqvJ+5jjcqdvVVz/AHsdacaWupph8s5n+8enl8vwOGudB1O2hSWW0k2spY7QTtH+1jpUX9kakQP9AuT9Yj/hXoutMP7P1HZtdWjIlP2kjYdvQDt244zmuY8U6pfWusCKC6kjTylO1WwMnNVKnGJpicvoUU5Nuxzs9hd2qB57aaNCcBnQgE+lV66W/uJbrwRayzSNLIblgWbqcbq5rvWM0k9DzMTSjTklHZpMKKKKk5Q712Xw/wD+Pq9/3E/ma43vXZfD/wD4+r3/AHE/ma0pfGjvyz/eofP8j0AdK5zxn/yCoP8Ar5j/AJ10Y6VznjP/AJBUH/XzH/OuyWx9fif4L9Dok+4PpS9qRPuD6Uvambx2FooooGFFFFABRRRQAUUUUAIa8p8R/wDIw3n++P5CvVj0rynxH/yMN5/vj+Qr0ss/iv0PBz7+BH1MuiiivcPkw/Cporq4gP7q4lj/AN1yP61DRUuEXui41Jx1TsXl1nVF6X9xj3kJpx1vVCOb+f8ABiKz6Kn2NP8AlX3Gn1qt/M/vLbapqDjDX1yR6eYf8arPI8hzI7ufVmzTaKcacI7ImVapLd3CiiirMgrufAX/AB5Xn/XUfyrhq7rwF/x5Xn/XUfyrizD+C/kerk3+9L0Z2NFFFfPH2oUUUUAFFFFABRRRQAlI33TS0jfdNNCex873f/H5P/10b+dRVLd/8fk//XRv51FX6BS/ho+KqfGwooorQgKKKKACiiigAooooAKKKKACiiigAooooAKKKKAN7wX/AMjfp3++3/oJr2+vEPBf/I36d/vt/wCgmvb6+Tzv+OvT9WfR5T/BfqLSUprGuvEVha61b6VI7G7nGVVVyB6ZPavGjFy0SPUlKMdzZpKo6rff2dp0955Mk4hUsY48biB161zknj6zW4EKWF5KSyqpVQMkjcBya0p0KlRXgrkTrQg7SdjsqK5U+NLX+y47/wCxXRElwbdYgql94z2zVf8A4TuESSx/2Pqe+EAyL5QygxkFuePxqlhqr6EPE0l1Oxpa56bxbptto9tqFwzolyoMce3c7e2BVnRtftta84Qw3ETQ7dyzx7DznH8qh0ppXa0LVWDdkzZpO9ICMUEjmoNLhS1zD+LI/wC0L63t7C7uI7LcJZYlBG8D7oGck8VvWdyLuzhuPLeLzEDeXIMMuexFVKnKKTaIjVjJtJ7Fmg0ZFNZgMnIqbF3Qv0pa5E+OtNRrzflkt5RGrREPvBH3uOgzx9adpXje0v3EEtrc29xtaQoyEgIBndn0Patnhqyjzcph9ZpXtzHV0Z9q5NfiBpLqGSC+ZT3FsxrX0bXbTXYJJrQSgRvsYSJtOcelTKjUgryjYqNanN2izWqlqTSR6bcvDCk0qxkrG/R8DofaroqKZtsLt6KTWa3NHsPT7g+lO7Ui/dFL2oGthaSlpO9AzMvrdpb3TpFKgQzl2DHGQY2Xj1OWH61p9qzb62aW906RSoEM7OwJwSDGy8epywrSpvZERWrFooopFiU1/uH6U6mv9w/SgUtjnfB//IOu/wDr7l/nWvNp9rcXC3EsEbyKuFZhnA61keDv+Qfdf9fcv866SlFtI58PFSopMjVVAwAAB6CvP/H5zqdp/wBc2/mK9DrK1LQbDVZI5LqEyNGNoIcjH5UpxclYzx2HlXoOnDQ8jor1EeDNF/59T/38b/Gj/hC9F/59T/38b/Gub2EjwP7ExHdHl1Feo/8ACF6J/wA+p/7+N/jR/wAIZon/AD6t/wB/G/xo9hLuH9iV+6+884GoXA0xrAMv2dn3kbRnP1ol1G5m06Owdl+zxsXUADOTnqfxNej/APCGaJ/z6t/38b/Gk/4QzRf+fVsf9dG/xqvZT7mn9lYv+ZbW36HJTalaWHhqTTrS6aeWdtzHaQI1PUfp/OmWmv2lraWtt9gciJ/NZllKlpMYyK7H/hDdEz/x6n/v43+NL/whmh/8+rf9/G/xquSd7nT9Txt04tKyscle+LW1G3ntp7GPyZB+7Ac7lbsSe/OKLrxfNNLuSxtduMfvVLN+fFdb/wAIZof/AD6t/wB/W/xpP+EM0T/n1P8A38b/ABpOFTuEsHj3vNf18jh9T8Qtqemx2j20cRR926LhehHT8axq9R/4QvRP+fU/9/G/xo/4QvRP+fU/9/G/xqXRk9Wc1XKcVVlzTkm/68jy6ivUf+EL0T/n1P8A38b/ABo/4QvRP+fU/wDfxv8AGl7CRn/YlfuvvPLu9dl8Pzi7vP8AcT+Zre/4QzRP+fY/9/G/xq7puh2GktI1pDsMgAbLE5x9auFJqSbOnB5TWo141JNWX+RqDpXOeM/+QVB/18x/zroxXOeM/wDkFQf9fMf862lse3if4MvQ6NPuD6Uvamp9wfSndqo2jsLRRRQUFFFFABRRRQAneikNZX/CQWAu5LaSXy5I2KneMA/jTjGUvhRMpqO7NU9K8q8R/wDIw3n++P5CvUkkSRNyOGU9CDkV5b4j/wCRhvP98fyFejlv8V+h4efO9CPqZdFFFe4fKBRRRQIKKKKACiiigAooooAK7rwF/wAeV5/11H8q4Wu68Bf8eV5/11H8q4sw/gP5Hq5N/vS9GdjRRRXzx9qFFFFABRRRQAUUUUAJSN900tI33TTQnsfO93/x+T/9dG/nUVS3f/H5P/10b+dRV+gUv4aPiqnxMKKKdGjSSLGgyzEAD1JrQgbRXQQeCfEE0qIbExhj99nXA9z1NE3grxBFI6DTzIFJwyOuG+ma5fruHvbnX3m6w1a1+V29Dn6K1dI8O6jrNzLBbRj91nfI5wqnpjPr7VK/hTXUdl/s6dtpPzADBx3HIpvFUYy5ZSV/UXsKrXMovUxaKvJpF5Jpd1f7UWG1kEUgJ+YMSBjH40suj3cWjwam237PNIYlAJ3bhnqMdODVfWaX8y3sL2M97Pa5QorRsNC1DU7Rri0g8yNZViPzAHccY/DkVpf8IF4i5/0JfT/Xp6fWpnjKEHaU19444arNXUX9xzlFba+Edbe9ktFtV8+JFkZfNXgEkDkn1BqQeCtd+0GAWi7wgfHnJ93OM5zS+uYdfbX3jWHrNfCzAoq9qej3ujTRxXsQieRdygOGyOnaqNbwnGa5ou6MpRcXaSsFFFFWSb3gv/kb9O/32/8AQTXt9eIeC/8Akb9O/wB9v/QTXt9fKZ5/HXp+rPo8o/gv1ILp5IraSSKMySKhKoDgsccCvLF/tC013S573TLgX8t08kjsynzSQBhcdAor1uq8ttbyyRyyQxu8RyjMoJU+x7V5lCuqV7q9zur0PaWs7WMPxmC3hS9dZXiaNQ6lX28g9Mj+VeYXN1He3sl3Irr8wZVdkDEqiqeCpyfb2r22WGOeMxyoHRuCrDINY6eFtNjs7m3jSRBcOztIG+dS2MhWPIHyiurB4yFGPLJX/pf5GGKwsqrTTPP5VJ8KWcCh5JG1d9qowV3xnoegJ9vUVTNrN9t1Rf7P1EGOIFlN2N0eVPMh/iH9K9ItvCel2qWQRJT9jlaaNnkJJZupPr2/KjUPCel6lczTTCZZJypdklIztGAPyrWOPhGVumv5+pzywM5JXavocVbzQ6ff+GNQ1BT9iFmEWQrlUfJ5P0yP59q3/FXiKGfw/OdIvQxSSNLiWA5MaNnnPbpXUR6VZR6fHYfZ0e3iQIsbruGB060+LTbK3ieOC0gijfh1SMAN9RjmuWeJhKSk1qvu3udUMNOMXFPR/eee20sVjrn2bRtQluLV7GR7gGYyKjBTg57HOKqWkM9tpfh7Vlvbpria7ETh5Sy7NxGPpgH869Ng02xtEdLezgiWThgkYUEe+BR/Z9l5UcX2ODy4jujTyxhD6gY4/Cq+uLt/wdyfqbtqzzu2tRHD4uu45phNDLKikSMByT19T70tjayazrlhaTXl2kB0qKV1jlILHjqfqfxr0T7Ba7ZlFrDtnOZhsH7w993HP40R2dpDKssVtEkip5asqAEKO2fSpeLvfTV/5WGsH0v/AFc871K2e91HxU73dyq2SI8SJMVXIXv9MfrS2sU9nqPhi8W8uJZdQVhP5spIYbRgY9Of0FehmxtD52bWHM/+tPlj95/vcc/jQbG0PlZtYcw8Q/IP3f8Au8cfhVfXdLW02/C356g8Jd3v/V7nj95b3Ii1eWayiiVZgksdu5Xy2I4zgEMg64OOe9aHh+Fpb+Z0SWRreA/aLlL0shG04GMc9Pu54rtB4J0vyGhL3hV5PMk/ft+9OOjeoqxF4Q0e1uEnt7doGCGMiNyAwIxyO5rqlj6bg46/0l5nMsDVU1J20/rsZvgvVLG38J2MU15bJIqsCrSAEfMex5p3gh1kOsujBlbUJCGU5BHHIq9B4L8PwwrF/ZsMmP4pBuY/U1e0rRrLRY5orGLy0lkMhXJIBPp6CuGpVpyU+W95P9Trp0ZxcU9kalRzNtidv7qk0/3qOdxHbySNjCqSc/SuVHWSL90fSnUxfujp07dKfQCCkpaSgZmX9u0t7p0iFQIZy7bjgkGNl49TlhWpWXf27zXunSIV2wzs7ZODgxsvHqcsK1Kb2REd2FFFFIsSmv8AcP0p1Nf7h+lApbHO+Dv+Qfdf9fUv866Sub8H/wDIPu/+vuX+dbc1zBbFDNKke9tq72AycdB+VKKujDDO1FXLJrH1TX7HSZUju5GVnBYYQnjOO1awIZcg5Hsa898f/wDIStP+ubfzFKbcVcyx2IlQoOpDc6D/AITXRv8AntJ/37aj/hNtG/57v/37avMaK5vbyPn/AO28R1SPTv8AhNtGz/r5P+/TUf8ACbaL/wA93/79tXng0u+NqbkWkvkgbi+3HHr9KqflTdaZcs3xMdZJL5M9O/4TXRf+e0n/AH6aj/hNdG/57yf9+mrzGrNnYXWoXHk2sRkfbuPQAD1yaFWk9EhRzjEyaUUm35M9F/4TXRv+e7/9+mo/4TbRf+e0n/ftq89utKvbOIyzwFIw5XduB+bnjg+x59qp0OtNbjnnGJg7Sil8j07/AITXRv8AntJ/36aj/hNdG/57yf8Afpq8yAycVZtrG4u4Jp4VDLDtDc8/McDFCrT6IUc4xU3yxSfyZ6J/wmujZ/18mP8Ark1L/wAJto3/AD2f/v2a4M+HtVW1E5spdpbGwD5x+H9arx6XfyqWjs53AJUkRkjI4P60/a1Oxq8zxi+x+DPQz410btNJ/wB+mo/4TbRv+e0n/fpq89fSNRVSzWU6qBkkxHiqf9Rml7aa3M5ZviofFFL5M9O/4TXRv+e0n/ftqvaZrtjq8ki2kjMYgC2VI6/WvI+9dl8Phm7vP9xP5mqhVbkkzfBZtWrV405JWf8Akd+K53xl/wAgmEetzGM4zjmuiHSud8Zf8gqD/r5j/nW7dlc9vE/wX6E40zVCMjWXHt5K8Uf2Xqv/AEGn/wC/K1tL90fSnVt7aXl9yKVONjE/svVv+g2//flaP7L1b/oNv/35Wtuil7aXl9yH7GPn97MT+y9W/wCg2/8A35Wj+y9W/wCg2/8A35Wtuij20vL7kHsY+f3sxP7L1b/oNv8A9+Vo/svVv+g2/wD35Wtuij20vL7kHsY+f3swjpmrf9Bh/wDvyK5C8triTVLiFVe4lEhDFRkk+vFel9+lRiNVJ2hRk5OBW1HFypu9kY1cMprdnHaVoOrRyBxMbRe5yCT+H+Nc7rysmu3Su+9gwy2MZ4Fer8YryrxH/wAjDef74/kK7cDWlUrNy7Hj51SjTw8Uu5l0UUV658ywooooEFFFFABRRRQAUUUUAFd14C/48rz/AK6j+VcLXdeAv+PK8/66j+VcWYfwH8j1cm/3pejOxooor54+1CiiigAooooAKKKKAEpG+6aWkb7ppoT2Pne7/wCPyf8A66N/Ooqlu/8Aj8n/AOujfzqKv0Cl/DR8VU+JhSqruwWMEuThQOuaSlVmRwysVYHIYdj61cttCYntmkRyJbWKPGqPHEivgck45zlPUHuKZrME8+m6nHDGkjGJ9ueWBx2ATk/ia5vQPG9pIjNqjpbtGRsUCRi/HXrjNUrz4iSPJfRQ2g8mVWSGVZGVwDkBu/5cV8f9RxHtXaO33f8ABPpPrlH2SvLc6XwwWt9H0+PzpBG8e0xJZsMk92cdx68Zq00scYurGFdStJCxH2gwvMPXKscgVyOkeKLDRdFSX7de3140ZVbZyRHGf8Pfk1b0/wAU6Xaf6bc65f3Mzpk2bRnYrHqB8vbnvRUwlbncuV79v+AEMTS5Em1t3LugR2T6Re2Vrbtc+VerG8snymV9wPmEf7PXHfbWtNqc1vNpVuXjk+1XTxsxjxuRQ3IGfUDn/GuD0fVtO/sTUIL25kge5vEm/dZ37cgkg1rnxHoF1rUN5NcyxRacSlrEsZKyDbjd049s+gq6uFqe0b5W16eX+ZMMTBQWq/p/5GtBo0tjd300DyGafUIpf3LEAxFxww9vnz7VryxReTfI0G8SMWZvIJBxzz83zY7dO1cPoHjWGz1G7W4Vktrm6ebzidxRTnC49Oh46ZPFW7bxza3OomG4ijhtwZsXTguQGORgdsjj8qipg8RzO8W7WKpYqiorVam9Oh/4SC6dQ7ebaxRMptGlRh8x5wQB16E1fENusyxtNbvOIQklusQ+aLJ4CbuOvuPauZTxhpi63qEy30kcBto44nWMnc67skKR7ipD4t0YXsl0L8hzZqglEPz78sTxjGcEVnLC139l7djSOIoq/vLcxPiEqvc2kyCVFVTEsbWzRqqjkcnr1PT0rjK6jxnrNtq9xZNa3TTpHFh9y7fmzzxjGema5evpstjKGHipHg42SlWk4hRRRXechseFXnTxNYtbRJLMGbajvtDfKe/OPyr2AXOrGz3/AGC3Nzvx5f2k7dvru29fbFeS+C/+Rv07/fb/ANBNe39q+VzuSVeOnT9WfQ5TFuk9eplfaNY+x7/sFt9o348r7Sdu3HXdt657Y/Gj7RrH2Pf9gtvtG/HlfaTt2467tvXPbH41q0c143N5Hqcj7syhcax9kLmwtvtG/Hl/aTt2467tvXPbH40w3WueQrf2da+buIKfazgDjBzs69eP51s0Ucy7IOR92ZLz6wLaJo7C2M5z5kZuTtT0wdvP5Ch7nWBbRMlhbmYk+ZGbkgKO2Dt5/KtXmijm8g5H3ZlNc6wLWJ0sLc3BJ8yM3JAUex28/lQ1xq/2WJlsLc3Bb95GbkhVHsdvP5Vq0Uc3kHI+7MprjWPskbrYWxnLfOn2khVHqG28/lQbjWPskbrYWxuCx3x/aDtA7ENt5/KtaijmXZD5X3ZkzXOsLHC0On2zuVzIrXRUKfQHYcj3wKJrjWFjiaHT7d5CuZVa5KhT6A7Tn64Fa1FHMuyFyPuzJmuNYWOIw6fbvIVzIrXJUKfQHac/XAoluNYWKJobC3eRhmVWuSoU+gO05/IVrUUcy7IOV92ZMtxrCQwmGwt3lYZlVrkqFPsdpz+Qokn1hYYmisLd5WB81WuSoU+x2nP5CtaijmXZByPuzDuJ/EHkwtbWlkHIPmpLMxwc8YIHNF5J4gEy/Y7WwaMoN3mysGDdxwORW3RT512Qcj7sxLyXxAJV+x21i0ZQbvNlYEN3AwORTdQ/t6T93bWmnSQvGA6zu3B7jAHIrepKFPyQvZ+bM24/tfzB9lFn5e0Z83dnP4UXH9r+YPsv2PZtGfN3Zz36Vp4oqebyK5PMzLj+1/MH2UWezaM+buznv0pJf7X+0jyhZ+Tlc7927pzjt61qUUc3kHL5nP6jb6rNqlpJF9k8iGfeu4sGwUKnPY/eP6Vcm/tf7T+4+xfZ9wxv3bsd+nGetOvrd5r7TpFxtgnZ3ycHBjZePXlhWjVOWiIjHV6mbL/a32n9wLP7Pkff3bsd+nGetE/9rfaT9n+xfZ8j/Wbt2O/Tj1rToqebyL5fMzJ/7W+0nyBZ/Z8j/Wbt2O/Tj1p8v9p/a/l+yfZM853b8fyrQpj/AHD64o5vIUo6PU5Lwp/aPkzeSLb7L9rk3bt2/Ge3asz4jfbv7Jj+0fZ/s32obNm7d91sZ7V0Hg7/AJBt1/19y/zrZuLaC5CieFJVRtyh1BAPrz35rTD1vZ1Iza2OSFH2mG5U90eO+Hz4q3L/AGQLvyvf/V/+PfLWt4l/tbzrP+2Pson8o48jPTI654/KvUgAq7VwAO2K8/8AH+f7Ss8/88m/mK0x+N9vFvkUfz+887HYX2OFfvN7ehyNXNKjjl1a0SXBjaRQc9CPSqdKCVIIJBHOR2rxlofOQlyzTa2Ok8TXupf2xPbrJKkBTaqr90pjkkdPXn2rQ/snSYNTttHeyeSSaEubjzCCDg9vwP5isGTxLqc1k1rLKpRl2M2wbsd+adF4p1WGARrKh2rtEhQbgPTNaqcb9z1lisO5uU7u/dXt3SNcaZpVhpts9xafaJHumt928jOGIyfwFX9PhstMv9Zt47U4jiEufMPKlc7R6cg/nXGnVLtrSG1aQGOCXzUyvO7JJOfqTUra7fGe4mMib7iMRynaMEAY4/OmpxXQqOOw8GnGNreXlqdBY2Vnf6bZO0LiKa8YeUZWIC4YgdevA5pttYaLd6/PYpYlVgR95MhO4grgjntzXPW2s3tpbxQROoSCQyICgOGOevr1NJb6veWt9NeROommzvJUEHJzwO1DnHTQl42g1G8deuiOlis9Dl0/T7waWR584twnmnjLY3H16frWjosP2Kz1C3E9utvHMVQE4ZRuIwx7dsGuJXVrxLW3tldfKt5RNENnIYHI+tXrfX4EtbhLizM01zIHncOV3ANkD2IqlUjc1oY7D8ybVmlrpbprsd9IxzwF84Q7ZFa5I2r69Ov+1iuU1O8ks/DET2czRk3bruSTdkZb+Lv9ajm8aPNmBrBWtWQoyvIxdh7tVODxO9rp62cFlDtWRmHmfMACSQAPbI5pymmtzor46hUVoy6PWxb8P6hd3kOqLcXLzKtqxUO2cda5UdB9K6KLxbL9nmhks4AJYymYvlxkVzuOKxm72R5OLqwnCEYyu1e4d67L4ff8fV7/ALifzNcb3rsvh9/x9Xv+4n8zRS+NCyz/AHuHz/I9AHSuc8Z/8gqD/r5j/nXRjpXOeM/+QVB/18x/zrslsfX4n+C/Q6JPuD6UvakT7g+lL2pm8dhaKKKBhRRRQAUUUUAFFFFACHpXlPiP/kYbz/fH8hXqx6V5T4j/AORhvP8AfH8hXpZX/FfoeDn38CPqZdFFFe4fKBRRRQIKKKKACiiigAooooAK7rwF/wAeV5/11H8q4Wu68Bf8eV5/11H8q4sw/gP5Hq5N/vS9GdjRRRXzx9qFFFFABRRRQAUUUUAJSN900tI33TTQnsfO93/x+T/9dG/nUVS3f/H5P/10b+dRV+gUv4aPiqnxMKKKK0ICiiigAooooAKKKKACiiigAooooAKKKKACiiigDe8F/wDI36d/vt/6Ca9vFeIeC/8Akb9O/wB9v/QTXt4r5PO/469P1Z9HlH8F+o6iiivGPWCiiigAooooAKKKKACiiigAooooAKKKKACiiigAooooAKKKKACiiigApKWkoAzb63knvtOkTG2GdnfJxwY2Xj15YVpdqzb63knvtOkQDbDOzvk44MbLx68sK0qb2REVqxaKKKRYlNf7h+lOpr/cP0oFLY53wd/x4XX/AF9y/wA66Sub8Hf8g+6/6+pf510lKOxhhf4SEPSsnVNAsNXmjlu0dmQFV2uR79q1j0rLv9d0/SnSO7mKM4yoCE/yFKVra7F1vZ8n721vMz/+EI0b/njL/wB/Wpf+EI0b/njL/wB/WqT/AITPQ/8An7P/AH7b/Cj/AITLQ/8An7P/AH6b/CovT8jh5cv/ALv4Ef8AwhGjf88Zf+/rUf8ACEaN/wA8Zf8Av61Sf8Jlof8Az9n/AL9N/hR/wmWh/wDP2f8Av03+FF6fkFsv/u/gR/8ACEaN/wA8Zf8Av61H/CEaN/zxl/7+tUn/AAmWh/8AP2f+/Tf4Uf8ACZaH/wA/Z/79N/hRen5By5f/AHfwI/8AhCNG/wCeMv8A39aj/hCNG/54y/8Af1qk/wCEy0P/AJ+z/wB+m/wo/wCEy0P/AJ+z/wB+m/wovT8gtl/938CP/hCNG/54y/8Af1qP+EI0b/njL/39apP+Ey0P/n7P/fpv8KP+Ey0P/n7P/fpv8KL0/IOXL/7v4Ef/AAhGjf8APGX/AL+tR/whGjf88Zf+/rVJ/wAJlof/AD9n/v03+FH/AAmWh/8AP2f+/Tf4UXp+QWy/+7+BH/whGjf88Zf+/rUf8IRo3/PGX/v61Sf8Jlof/P2f+/Tf4Uf8Jlof/P2f+/Tf4UXp+QcuX/3fwIh4J0b/AJ4yf9/Wq/pmg2GkPI9ojKZAA25ien1qqPGWiY5uj/36b/Crmna3p+rPIlnN5hQAsCpHX6/SnHkvoaUlg+dez5ebptc0xXOeM/8AkFQf9fMf866Ouc8Z/wDIKg/6+Y/51UtjfFfwZeh0afcH0pe1In3B9KXtVG8dhaKKKBhRRRQAUUUUAFFFFACHpXlPiP8A5GG9/wB8fyFerGvLfFEMkXiC6Z1wshDoT0IwBXo5Y7VX6Hh56m8OvUx6KKK90+RCiiigAooooAKKKKACiiigAruvAX/Hlef9dR/KuFru/AakWF0xBCtKME98CuHMf4DPWyX/AHpejOwooor58+0CiiigAooooAKKKKAEpG+6aWkb7ppoUtj53u/+Pyf/AK6N/Ooqmu/+Pyf/AK6N/Ooa/QKX8NHxdT4mFFFFaGYUUUUAFFFFABRRRQAUUUUAFFFFABRRRQAUUUUAbvgv/kb9P/32/wDQTXuA6V4V4VhebxNYxRzvA7M2JUAJU7T2IIr2D+zrv7H5H9rXPmb93nbI92Mfdxtx79K+VzuK9vG76fqz6HKW1SenU1eaOayv7OvPsXlf2rdGTfu87ZHuxjGMbcY79M0f2fefYvJ/ta68zfu87ZHvxjGMbcY79M141l3PV5n2Zq80c1k/2feCyMX9rXXmF93nbI92MdMbcY79M0w6ZfGBYxrN4HDFjJsjyRxxjb0/DvRyruLmfZmzRWU+n3jWsMS6tdI6Z3ShIyz/AF+XHHsKH068a1hiGrXSOhJaUJGWf6/Lj8hRyruPmfZmrRWS2nXj2kUS6tdI6NlpQkZZ/Y/Lj8qVtOvGtIol1e6WRCS0wSMs/sRtx+lHKu4cz7M1aKym068NpHCNXulkRsmYLGWf2I24/Sg6beG0jhGr3SyIxJmCR7mHoRtx+lFl3DmfZmrRWTNpt7JDEiaxdRsi7WdUjJc+pyuM/TFEunXssMSJq91EyKVZlSMl/c5UjP0o5V3DmfZmtzRzWTLpt7LDEiavdRMilWdUjJf3OVIz9KJNOvZYYkXV7qJkXDOqRkv7nKkflRyruLmfZmtzRzWVLp17LDEiavdRMgwzqkZL+5ypH5CiXTr2WGJE1e6jZBhpFSMl/c5Uj8hRyruHM+zNXmjmsqbT7yS2jij1a6iZAQ0qrGS/1yuPyxS3On3k5Ux6tdW4VNrBEjO4/wB45U/pijlXcOZ9matFZVzp15Ps8vVrqDYgUhEjO8/3jlT+mKS5027mEZj1a6g2IFOxYzvP945U8/ShRXcHJ9jV5orKudNvJ/L8vVrqAogVtix/Of7xyp5+mKLjTbycR+Xq11AUQK3lpH85/vHKnn6YoSXcfM+zNaism4027nWPy9WuoCiBW8tY/nP945U8/TFMl0u9d1ZNZu48KoKqkeCQOScqeTQoruHM+xPfQSz3unSJt2wzl3yccGNl49eWFaNYt5pM95exXA1K6iETbkjRUwpwQTypPIJ6+tWbmxuppfMi1K5gXGNiKhH15Umm0rJXJTabdmaVFZtzY3U8u+LU7mBcY8tEQj6/MpNFxY3U0u+PU7mBcY2IiEfX5lJqVFdyuZ9jSpjfcOaoXNjdTS749TuIVwBsjVCPrypNE9ncSTrIuoTxooGYlVNrfXIJ5p8q7icnZ6GZ4P8A+PC6/wCvqX+daOraxZ6LDHPeyFI5JBGGC5w2CecewNYPhe0uJbeeVNQniUXcmY1VNp5HXK5/I1T+IOnXk9hCYZLm533I226xhgvytyMLn8z3rTD0oTqRjKWjOOFWcMNzRWp19lqtjqMXmWl3DMuP4GBx9R2riPiF/wAf9r/1zP8AMVh6V4D164kWVj9hA5Du+H/JefzNWvFOnXOmtaQ3WoTXj+UfmkAGOR07/manNsPRpU5eznzf19xw42vVqYV88LbHPZozSUV8ZzM+dLmnaZd6rceTaoG4yzE4VR71Y1TQrjSoUllnhlRn2fumzg+/FbPhdftOiapZWrhLyRQVbOCwxj/H86q6N4e1GLV7driFYF3HDSAMCQpPTPP1rtjSvCNk3fr21PShhoypRaTbl17anOZ96M+9d/rcKSWGmzyRsZhfIm+WMI2Nx7DtxxViaZbjVNX0x7eH7OlqHAwASxHUn/PSq+ptOzl/Vrl/2byy5XL8O9/8jzjPvRn3ruLoXdjo2npo9nHNBLCWkbaCWJHf0+taNrFaWmmWEcMUkttLCC6xweZ5hIHLN2NCwbbs5bBHLNeXm6fmchb+Hri4ttOuFfct5L5e1VJKDJy34AVbt/Bl5IjPPPDAudiBiclskBccYzx69a27R7UWOhETyQxfa2EZXqfmbap9j0NblncRXFkXhYvvl2gtECyMDjLjPXjr9K66eEpvf8/JHbRy+hJK/wCfkefjwpqTX8lmHtvOjjEj/veADwAePb9am/4QzUz92W0J6cSH/CujM0dzfazDAyyzJasj7I9pZ+ePfpjNcpo2lajHrNnJJY3CosylmaLAAyKwlQgpJJN389jnqYSjGSSi3dvrsZd3bSWV3JbS43xna205H8qizWj4h/5GC99PM/pWbXnz92TSPKrRUJuK6BXb/Dr/AI+bz/dX+ZriO1dv8Ov+Pu9+i/zNdWAf79HRl3+8w9f0PQx0rm/Gf/IMg/6+I/510g6VzfjP/kGQf9fEf86+hlsfV4v+Ezo0+4PpS9qRPuD6Uvambx2FooooGFFFFABRRRQAUUUUAJWXq+jW2sW5ilXDDlXHVTWnR16U4ycXzLczqU41IuM1dHlmp+Hr/TXJeIywg8SoMjHuO1ZNe0Y3D5qyb7w3pt8S0tsquf40+U/pXqUcza0qI+exORX1ov5M8tortbjwGpyba9Zf9mRA36jFZ0vgnVEP7treQf7xH9K7o46hL7R5dTKsTD7P3anN0VunwfrA6QRn/toKb/wiGs97Zf8Av4P8a0+s0f5l95j9RxP8j+5mJRW8PB2rnrFEPq9WYfA2oPjzZ4Ix7ZY/0qXjKK+0io5dipOyg/yOYoHUDv2A5Jru7bwJapg3N1LL7IAo/qf1rbs9D0/T+be2RWH8R+Y/ma56mZUl8Kb/AAO6jkdeTvOyX3s4fSfCt7qDLJOptrfqS4+Zh7D+pr0CysodPtI7eEbUUYGep9z71aFBzmvKr4mdd+9t2PocJgKWFXub92PooornO4KKKKACiiigAooooASkb7ppaRvumgTV0fPF4CL65yMfvW/nUNeuap8PtN1O9ku1mmtpJG3OI8FSfXBHFUf+FXWfbUbgf8BFfWUc4w/IuZtP0Pm55ZW5nZXXqeY0V6f/AMKts/8AoJ3H/fIo/wCFW2f/AEErj/vkVp/bOG7/AIMz/szEdvxR5hRXp/8Awq2z/wCgncf98ij/AIVbZ/8AQTuP++RR/bOG7/gw/szEdvxR5hRXp/8Awq2z/wCgncf98ij/AIVbZ/8AQTuP++RR/bOG7/gw/szEdvxR5hRXp/8Awq2z/wCgncf98ij/AIVbZ/8AQTuP++RR/bOG7/gw/szEdvxR5hRXp/8Awq2z/wCgncf98ij/AIVbZ/8AQTuP++RR/bOG7/gw/szEdvxR5hRXp/8Awq2z/wCgncf98ij/AIVbZ/8AQTuP++RR/bOG7/gw/szEdvxR5hRXp/8Awq2z/wCgncf98ij/AIVbZ/8AQSuP++RR/bOG7/gw/szEdvxR5hRXp3/CrrT/AKCNx+Qo/wCFXWY/5iFx+S0f2zhe/wCAf2ZiOxx3gsH/AIS/T8f32/8AQTXuArmfD/gyw0G5NzG0s1xjaHkI4HfGK6UV89mWLjia3NDZaHtYDDyoUuWW7HUhNIa8/wDFevX8t3s02dobSznjjuJUbBeRj9wewHX61yUaMqsuVaHVWqqlG7PQe1JketU7+YxaZPKI3lKxk+XGcM3HQH1rye6uLo2Fv9mutRl3W6NF+8cFQXcHO3g9Op7Vrh8K6zetuhlXxKpW0vc9lyKTcK8rtru4Xw54jaO5ulMfk+WWkcsmeuC3zY+tUw16dTtYBHrpWSAyGL7X+8c/3lPTH1rdZe22r7f5X7mLxyST5dz2AEEcUBgTjFeW2OtanHoVpYW1zIt3e3skSzzMXaNRgdT35/nXYabpN1oxmu5NUvtQAgOYJDu3MOcr6HjGPesKuG9nu/TzNqWJ9pay9To+fSiuY0zxYLzVv7OubGS1naMyJmRX3Adjt6H2qgPiAnkrctpd0tr53kvOWGEP9ahYaq24pF/WKdr3O2xRXMJ4rkudVktLLSrm5ghm8ia5UhVRs4PB6471Wn8dQRzylLKWSyhl8iW6DgAN3wp5I96Sw1R7IHiKa1udhSbhivOL28u/tHi4R3SIAsYUTOcBSrbgoz94jp74rn7m+vrq302Ce4u3tXjVAlu6hSwHy7c/xDo2e4NdNPL5Tfxf1a5zzx0Y6W/q9j2jcPWkOK8sOoa3D4cY3F1fw3bXcaGR2XhTnhcfr74ro5fDWpx20kn/AAk2pZVCQMjsKznhVB2lJfiaU8U5q6idgOnrTh0rnfBd1PeeFrSe4meaVt+53PJ+c4/SuirmnFwk4vodFOfPFS7i0UUUiwooooAKKKKACiiigAooooAKY3CGn0xvun6UClsc54O/5B91/wBfcv8AOukrlPDF5b2cV7a3E0cMyXTkpIwBwehrf/tOx/5+4P8Av4P8aUdjmw84qkk2XO1cB45sbq6v7UwW80oCNkohYDkeldkdTsf+fuD/AL+D/Gl/tKwYc3dv/wB/B/jUVIKpHlZOJp08RT9m5HkP9i6n/wA+Nz/36b/Cj+xdT/58bn/v03+Fevf2lp//AD9W/wD38FH9paf/AM/dv/38FcP9m0u55f8AZFH/AJ+fkeRx6Vq0MiyRWl2jr0ZY2BH6VM9t4gkdHdL9mQ5ViHyp9q9V/tLT/wDn6t/+/gpf7SsP+fq3/wC/grRYGmlZNlRyuEVZVDymW016bAlTUJADuG4OcH1+tN+w675ry+Tf73GGba+WHoTXq/8AaVh/z92//fwf40v9pWH/AD92/wD38H+NL6hT7v7xvK4P/l6zyiKz12CHyoo79Iz1RFcD8qWG11+CHyoY7+OP+6quB+Verf2lYf8AP3b/APfwf40n9pWH/P1b/wDfwf40fUKf8z+8P7Nj/wA/WeXWUWu2M0ckVtdN5WdiSROyrnuB0zV03/ifyVhjtpYAMZMNsVLH3Nei/wBpWH/P3b/9/B/jSf2lYf8APzB/38FXHBxirKT+8uOB5FZVWec/bvEv2mScW8okeIIzrbkcDnjjrzUcdz4pjkVh9uO3Bw0ZIP14r0r+0tP/AOfq3/7+CgajYf8AP3b/APfwf40fVI3+J/eNYF/8/WeT3On6teXMlxLY3BkkOWIhYf0qL+xtT/58rn/v03+Feu/2jp4/5erf/v4KP7S0/wD5+oP++xWTy6k3dswllNJu7qankX9jan/z43P/AH6b/Cuv8CWV1a3V4bi3ljDIuN6Fc8n1rrv7S08/8vdv/wB9ij+0dPA/4/IP+/g/xrSjgqdKanFm2Hy6lRqqop3t6Fwe9c74z/5BcH/XzH/OtY6lY9ftcH/fwf41g+Kb23u7W1tYJo5Z3uU2ojAnAPJrrk9DvxU4+xaT6HVp9wfSl7U1Puj6U7tVHVHYWiiigYUUUUAFFFFABRRRQAUUUUAFFFFADeM0ZFYfie8nstGea3kKS7lCkd+enQ/571xFvreqyxJa/a5FaeRURnYrj5iSScZwenB9a6qOEnVg5po5KuKjSnyNHqlFef3HiHVXTTrpvJhR3kwFl2hwMjDZ+mR6nFQWGtX013Zp9vm3b42l824j2FTjIAAH5ZzVLBT5b3RP1yF7WZ6NS15xqevau0tzbxXMqnz5I41ihH3VPPzDkEfStvw7e6jeXCiae5kt/KyrS2yqG6c7gTk1M8LKEOdtfiVHFxlPkSZ1tFIOgpa5TrCiiigAooooAKKKKACiiigAooooAKKKKACiiigAooooAKKKKACiiigAooooAKKKKACiiigAooooAKKKKACiikNADSMiuM1fwDaXEB/s8mKVpg7+ZK5UjOTxzzXac0tXTqzpPmg7GVSlCorSRSFokWm/ZISQqxeWhYlsDGB9a81tPA+qC4mglKlIAhDyAusmVfIQexI4JGM16vR3rWji6lG/K9yKuGhUtfoeVwaLq/8AwjmpQrps4kuXgjRZMBiqgZYgH2FWdT8H/YtVhktNNurq0S3JdUuCCXzwAc5HrXpXftQetarH1VJtdb/iZvBU2tTzvT/B95c+HbdXLaffQXLz25J3Fc9AfyB/Ctb+yfEd9YXdrqOo2qrLAY4zboQd2RyT6cEcetdbRWU8VObu7d1psVDCwgrK5w+ieEr7T9Ytb24axRIIDEUt0YZJHU56n1JpT4OvT4Tk0kXEHnNc+cH524znHTNdvxjmjvQ8VVb5uun4DWFppcqORstD1rTNSuDZXdobC5uTcSLKjb1ycsBj8qz/APhB7m3v52jTTbm2ml8zddREyICeVGODXfd6XnmksVUV2uv4g8NTas+hwmr+HZ4o9cuPsgvhemP7PDH95GVSAx7cE1hTeF9QlurVbPSAkkdskcz3ATymbaPmHfOTXrFFaU8dUh/XyIngqczzIeHdRj8Jizg0gxXsd5GztvDCbbk7vpzit6VvGTW0iG10vBQjiR8njt7119FTPFSk7yS3uOOFUVZSe1jn/B1lc6f4Ztbe7iMUyb9yEg4yxPauhopa55yc5OT6nRTgoRUV0CiiikWFFFFABRRRQAUUUUAFFFFABSEcUtJQBm3eiadfyB7q0id/7xXn86rf8Ino3/PjH+tbVGaWhjKjTbu0jF/4RTRf+fCP8zR/wimi/wDPhH+Zraoo5V2D6vS/lX3GL/wimi/8+Ef5mj/hFNF/58I/zNbVFHKuwvq9L+VfcYv/AAimi/8APhH+Zo/4RTRf+fCP8zW1RRyrsP6vS/lX3GL/AMIpov8Az4R/maP+EU0X/nwj/M1tUUcq7B9Xpfyr7jF/4RTRf+fCP8zR/wAIpov/AD4R/ma2qKOVdg+r0v5V9xi/8Ipov/PhH+Zo/wCEU0X/AJ8I/wAzW1RRyrsH1el/KvuMX/hFNF/58I/zNH/CKaL/AM+Ef5mtqijlXYPq9L+VfcYv/CKaL/z4R/maP+EU0X/nwj/M1tUUcq7B9Xpfyr7jF/4RTRf+fCP8zR/wimi/8+Ef5mtqijlXYX1el/KvuMX/AIRTRR/y4RfrVm00PTbF/MtbOKN8Y3Bea0aWiy7DjRpp3SX3AKWkFQOzi8AQZJTnJwAM/wA6ZsWKKrGZ3aEqo5ZgQWx0zn+VNjnl2ooQMzs2Mt0A9eKALdFV2uGAIAXcrhTubA6Zp++UrxGMhsfe4I9aAJaKpSsWM5BOWIhXn8z+v6U5JXRZmCAxozHJbk0AW6KqtN5bzuAW+6FGepPAp7TmJSZVGQpb5TnpQBPRUAllBiEiKDI2MBs44J/pTpZWWRI41DM2TycAAf8A6xQBLRUDTOCo2KpJIO9sdPSkM8m6NFjG9sk5bgAd+PqKAMnxRaT3ujyQW8LySll27GAI9+e1cqnh7WI7aW0NjEftBTbIJiUgC88DqD7iu8ErRmXC7mMwUAnj7oqdHJkZGADKATjpzn/CuiniZ04ciOWrhY1JczZ5/caLqTQafGukKZraJ42bzAVYAMF/HJ3fjRYaJqdpe2jm0lISYRyOdhVo1JA+XGR25rvTLIZnREG1ACWJ9aabkkx7QgDKGJd8YzWn12fLy2X4/wCZP1KF73ZxX/CMaldQTXEy2yytJLII3VmYEk8AhgOcDtWj4X0S903yp7jykDRYdMNvHfklsfkK6Mzs7QlMHLlT83HGc1GHcyq6jcXdtoLYAAAGf0/Woliqkocj2LjhacZcy3L46UVXa4YfKqAyeZsAzx0zn8qV52QMCq71AP3uOfeuY6SeioPNk2MfLDEAEYbg037UFVi+07ULEocjigCzRUKyyAJ5qKpc4ABzjikimdyuVTBJB2tnH1oAnooooAKKKKACiiigAooooAKKKKACiiigAooooAKKKKACiiigAooooAKKKKACiiigAooooAKKKKACiiigAooooAKKKKACiiigAooooAKKKKACiiigAooooAKKKKACiiigAooooAKKKKACiiigAooooAKKKKACiiigAooooAKKKKACiiigAooooAKKKKACiiigAooooAKKKKACiiigAooooAKj8s/aDLnjZtxj3qSigCBYGVY8MpZWLZI9Sf8AGo/LkjkjRdvViDtOBVuigCBYHVWO9TIzbmyODxjGKEhkQMQ6hmYEgLwAOwqeigCBLcr5WWB2EseOrHv+ppr28jK8fmKEcndhecH8as0UAQmDLSHI+bGOOmKaYWZmeZg2FKhVXsev1qxRQBSRnlniGSwQlifLKgDBHfvzU/ly4Db0MgzyV4we1TUUAQeVL5eC6uxzncOPypFgdFBV1MgJOSOOe1WKKAK4t2zlnBPmiQ4HtjFPaJ98ro4DOoAyM4xn/GpaKAIliKvK24fPjHHTio/s7KiBNhZUCksuc4qzRQBXMEgjQK4Mi5O5h3NOWAK0O04WNSMY61NRQBB5BBdgw3F94yOnGKFhk3PIzgyMABgcADtU9FAFX7KzB95T5gAFC/Lwc804W7lsuUxtK7VXHBx71YooAg8mRpEMjgqnKhR1OMZNJ5EhlVmZMKc/KvLfU1YooAKKKKACiiigAooooAKKKKACiiigAooooAKKKKACiiigAooooAKKKKACiiigAooooAKKKKACiiigAooooAKKKKACiiigAooooAKKKKACiiigAooooAKKKKACiiigAooooAKKKKACiiigAooooAKKKKACiiigAooooAKKKKACiiigAooooAKKKKACiiigAooooAKKKKACiiigAooooAKKKKACiiigAooooAKKKKACiiigAooooAKKKKACiiigAooooAKKKKACiiigAooooAKKKKACiiigAooooA//2Q==;" parent="1" vertex="1">
          <mxGeometry x="73" y="348" width="403.41" height="200.15" as="geometry" />
        </mxCell>
        <mxCell id="wp-0MRlqjjFjuvnXnYiu-69" value="&lt;font color=&quot;#66ffff&quot;&gt;流程&lt;/font&gt;" style="text;html=1;strokeColor=none;fillColor=none;align=center;verticalAlign=middle;whiteSpace=wrap;rounded=0;dashed=1;" parent="1" vertex="1">
          <mxGeometry x="-280" y="170" width="40" height="20" as="geometry" />
        </mxCell>
        <mxCell id="wp-0MRlqjjFjuvnXnYiu-59" style="edgeStyle=elbowEdgeStyle;rounded=0;orthogonalLoop=1;jettySize=auto;html=1;exitX=0.5;exitY=0;exitDx=0;exitDy=0;dashed=1;" parent="1" edge="1">
          <mxGeometry y="213" as="geometry">
            <mxPoint x="37.5" y="205" as="sourcePoint" />
            <mxPoint x="37.620689655172555" y="205" as="targetPoint" />
          </mxGeometry>
        </mxCell>
        <mxCell id="wp-0MRlqjjFjuvnXnYiu-70" value="" style="group" parent="1" vertex="1" connectable="0">
          <mxGeometry x="-20" y="214" width="120" height="110" as="geometry" />
        </mxCell>
        <mxCell id="wp-0MRlqjjFjuvnXnYiu-39" value="" style="whiteSpace=wrap;html=1;dashed=1;strokeColor=default;fillColor=none;" parent="wp-0MRlqjjFjuvnXnYiu-70" vertex="1">
          <mxGeometry width="120" height="110" as="geometry" />
        </mxCell>
        <mxCell id="wp-0MRlqjjFjuvnXnYiu-34" value="cancel接口" style="text;html=1;strokeColor=none;fillColor=#99FF33;align=center;verticalAlign=middle;whiteSpace=wrap;rounded=0;" parent="wp-0MRlqjjFjuvnXnYiu-70" vertex="1">
          <mxGeometry x="20" y="45" width="70" height="20" as="geometry" />
        </mxCell>
        <mxCell id="wp-0MRlqjjFjuvnXnYiu-36" value="try接口" style="text;html=1;strokeColor=none;fillColor=#99FF33;align=center;verticalAlign=middle;whiteSpace=wrap;rounded=0;" parent="wp-0MRlqjjFjuvnXnYiu-70" vertex="1">
          <mxGeometry x="20" y="10" width="70" height="20" as="geometry" />
        </mxCell>
        <mxCell id="wp-0MRlqjjFjuvnXnYiu-37" value="confirm接口" style="text;html=1;strokeColor=#80FF00;fillColor=none;align=center;verticalAlign=middle;whiteSpace=wrap;rounded=0;dashed=1;" parent="wp-0MRlqjjFjuvnXnYiu-70" vertex="1">
          <mxGeometry x="20" y="75" width="70" height="20" as="geometry" />
        </mxCell>
        <mxCell id="wp-0MRlqjjFjuvnXnYiu-41" style="edgeStyle=none;rounded=0;orthogonalLoop=1;jettySize=auto;html=1;exitX=0.5;exitY=0;exitDx=0;exitDy=0;dashed=1;" parent="wp-0MRlqjjFjuvnXnYiu-70" source="wp-0MRlqjjFjuvnXnYiu-39" target="wp-0MRlqjjFjuvnXnYiu-39" edge="1">
          <mxGeometry x="460" y="363" as="geometry" />
        </mxCell>
      </root>
    </mxGraphModel>
  </diagram>
</mxfile>
